<?xml version="1.0" encoding="UTF-8" standalone="no"?>
<svg width="735px" height="940px" viewBox="0 0 735 940" version="1.1" xmlns="http://www.w3.org/2000/svg" xmlns:xlink="http://www.w3.org/1999/xlink" xmlns:sketch="http://www.bohemiancoding.com/sketch/ns">
    <!-- Generator: Sketch 3.4.2 (15857) - http://www.bohemiancoding.com/sketch -->
    <title>bln1</title>
    <desc>Created with Sketch.</desc>
    <defs>
        <path id="path-1" d="M0.125696647,8.88575957 C-0.695461192,3.97829007 2.66778508,0 7.63472697,0 L145.494386,0 C150.462667,0 153.817227,3.97618761 152.988237,8.87379309 L136.357604,107.126207 C135.528063,112.027068 130.834837,116 125.859768,116 L27.044744,116 C22.0764906,116 17.3835972,112.023812 16.5620875,107.11424 L0.125696647,8.88575957 Z"></path>
        <path id="path-3" d="M278.20224,774.710815 L460.762787,774.710815 C495.207083,739.611089 529.875408,702.700136 566.717773,664.123718 C652.670077,574.125915 734,473.862252 734,357.777075 C734,160.182253 569.688503,0 367,0 C164.311497,0 0,160.182253 0,357.777075 C0,523.472436 163.330802,658.843121 278.20224,774.710815 Z"></path>
    </defs>
    <g id="Page-2" stroke="none" stroke-width="1" fill="none" fill-rule="evenodd" sketch:type="MSPage">
        <g id="bln1" sketch:type="MSArtboardGroup">
            <g id="ballon-+-University-of-Illino-+-B.S-Computer-Enginee" sketch:type="MSLayerGroup">
                <g id="Group" transform="translate(272.000000, 739.000000)" stroke-width="5" sketch:type="MSShapeGroup" stroke-linecap="square">
                    <path d="M0.871239401,8.45410238 L29.6241889,96.9396552" id="Line" stroke="#947882"></path>
                    <path d="M55.9939126,0.488585137 L67.6677478,80.4106037" id="Line-Copy" stroke="#947882"></path>
                    <path d="M126.530629,0.454102378 L138.204464,80.376121" id="Line-Copy" stroke="#795663" transform="translate(132.367546, 40.415112) scale(-1, 1) translate(-132.367546, -40.415112) "></path>
                    <path d="M164.530629,8.45410238 L193.283578,96.9396552" id="Line" stroke="#795663" transform="translate(178.928883, 52.715517) scale(-1, 1) translate(-178.928883, -52.715517) "></path>
                </g>
                <g id="Rectangle-7" transform="translate(292.000000, 820.000000)">
                    <mask id="mask-2" sketch:name="Mask" fill="white">
                        <use xlink:href="#path-1"></use>
                    </mask>
                    <use id="Mask" fill="#795663" sketch:type="MSShapeGroup" xlink:href="#path-1"></use>
                    <rect fill-opacity="0.2" fill="#000000" sketch:type="MSShapeGroup" mask="url(#mask-2)" x="76" y="-23" width="83" height="143"></rect>
                </g>
                <g id="Rectangle-6">
                    <mask id="mask-4" sketch:name="Mask" fill="white">
                        <use xlink:href="#path-3"></use>
                    </mask>
                    <use id="Mask" fill="#7CC9BF" sketch:type="MSShapeGroup" xlink:href="#path-3"></use>
                    <path d="M327.491483,775 L407.896386,775 C412.644882,783.707805 363.608708,921.136215 471.833771,775 L564,775 L564,690 L532.11088,690 C618.118335,561.969055 684.583494,425.543401 669.107647,289.354742 C644.246648,70.5760026 473.747281,-3.97584472e-08 431.681505,-3.97584472e-08 C419.185044,-3.97584472e-08 411.753852,-19.6689134 445.312874,27.6180826 C478.871895,74.9050786 562.220797,193.470863 562.220802,345.264008 C562.220806,497.967638 503.88324,616.533319 458.326621,690 L407.755771,690 C423.894139,599.522443 439,450.831204 439,316.312517 C439,60.9843642 391.055645,-48.2981491 369.5,-48.2981491 C347.944355,-48.2981491 300,60.9843642 300,316.312517 C300,471.49535 313.311671,607.323475 328.473332,690 L276.993943,690 C231.442426,616.529062 173.134587,497.984898 173.134592,345.32018 C173.134596,193.527035 256.483498,74.9612508 290.04252,27.6742547 C323.601541,-19.6127413 316.17035,0.0561721359 303.673888,0.0561721359 C261.608112,0.0561721359 91.1087457,70.6321747 66.2477459,289.410915 C50.7741626,425.579656 117.21762,561.985324 203.20678,690 L175,690 L175,775 L263.480025,775 C371.999979,921.552695 322.491029,783.152468 327.491483,775 Z" fill="#C7E5D1" sketch:type="MSShapeGroup" mask="url(#mask-4)"></path>
                    <path d="M327.354642,-167.254157 C358.273181,-176.885085 390.639136,-182 423.969186,-182 C642.13868,-182 819,37.156615 819,307.5 C819,577.843385 628.301236,790.071045 410.131741,790.071045 C387.430988,790.071045 379.014907,794.627277 357.361312,790.071052 C405.941873,698.315804 424.076792,512.407543 424.076792,298 C424.076792,106.799524 380.057901,-65.2861221 327.354642,-167.254157 L327.354642,-167.254157 Z" id="Oval-10" fill-opacity="0.2" fill="#000000" sketch:type="MSShapeGroup" mask="url(#mask-4)"></path>
                </g>
            </g>
            <g id="B.S-Computer-Enginee-+-University-of-Illino" sketch:type="MSLayerGroup" transform="translate(186.000000, 262.000000)" font-size="24" font-family="Open Sans" fill="#2A2B2E">
                <text id="B.S-Computer-Enginee" sketch:type="MSTextLayer" font-weight="normal">
                    <tspan x="3" y="109">B.S Computer Engineering</tspan>
                    <tspan x="3" y="154">Expected December 2017</tspan>
                    <tspan x="3" y="199">GPA: 3.58 </tspan>
                    <tspan x="3" y="244">James Scholar, sp14 - present</tspan>
                </text>
                <text id="University-of-Illino" sketch:type="MSTextLayer" font-weight="526">
                    <tspan x="0" y="26">University of Illinois at Urbana-</tspan>
                    <tspan x="0" y="59">Champaign</tspan>
                </text>
            </g>
        </g>
    </g>
</svg>