<?xml version="1.0" encoding="UTF-8" standalone="no"?>
<svg width="1454px" height="493px" viewBox="0 0 1454 493" version="1.1" xmlns="http://www.w3.org/2000/svg" xmlns:xlink="http://www.w3.org/1999/xlink" xmlns:sketch="http://www.bohemiancoding.com/sketch/ns">
    <!-- Generator: Sketch 3.4.2 (15857) - http://www.bohemiancoding.com/sketch -->
    <title>cld2</title>
    <desc>Created with Sketch.</desc>
    <defs>
        <filter x="-50%" y="-50%" width="200%" height="200%" filterUnits="objectBoundingBox" id="filter-1">
            <feOffset dx="0" dy="2" in="SourceAlpha" result="shadowOffsetOuter1"></feOffset>
            <feGaussianBlur stdDeviation="2" in="shadowOffsetOuter1" result="shadowBlurOuter1"></feGaussianBlur>
            <feColorMatrix values="0 0 0 0 0   0 0 0 0 0   0 0 0 0 0  0 0 0 0.35 0" in="shadowBlurOuter1" type="matrix" result="shadowMatrixOuter1"></feColorMatrix>
            <feMerge>
                <feMergeNode in="shadowMatrixOuter1"></feMergeNode>
                <feMergeNode in="SourceGraphic"></feMergeNode>
            </feMerge>
        </filter>
    </defs>
    <g id="Page-2" stroke="none" stroke-width="1" fill="none" fill-rule="evenodd" sketch:type="MSPage">
        <g id="cld2" sketch:type="MSArtboardGroup">
            <path d="M1448,409.533611 C1448,365.883174 1388.78374,329.665452 1311.16761,322.815469 C1320.41599,308.070063 1325.48009,292.073682 1325.48009,275.359943 C1325.48009,201.628382 1226.92878,141.857142 1105.35958,141.857142 C1085.23489,141.857142 1065.74098,143.495103 1047.2205,146.563206 C1014.23041,64.1302265 924.41425,5 818.787595,5 C717.910185,5 631.453471,58.9324732 595.145566,135.588598 C573.743512,125.846803 549.75846,120.389355 524.428326,120.389355 C447.925617,120.389355 383.692421,170.170889 365.833067,237.415281 C343.252219,224.581322 315.327226,216.994397 285.099185,216.994397 C209.978594,216.994397 149.081322,263.850243 149.081322,321.649858 C149.081322,323.50528 149.144075,325.349424 149.268037,327.181102 C59.3475695,316.353408 -6.42562938,383.510116 7.98515109,438.532534 C19.9956186,484.390214 69.1776877,483.999998 160.829754,483.999998 C160.829754,483.999998 1360.98546,483.999998 1371.35507,483.999998 C1437.60971,474.680854 1448,440.913434 1448,409.533611 Z" id="Oval-18" fill="#FAFAFA" filter="url(#filter-1)" sketch:type="MSShapeGroup"></path>
            <g id="comp" sketch:type="MSLayerGroup" transform="translate(296.000000, 245.000000)" font-family="Open Sans" fill="#2A2B2E" font-size="24">
                <text id="November-2015---pres" sketch:type="MSTextLayer" font-weight="normal" sketch:alignment="right">
                    <tspan x="27.2265625" y="82">November 2015 - present </tspan>
                    <tspan x="154.1875" y="127">Champaign, IL </tspan>
                </text>
                <g id="Designed-release-1.2-+-YTTRO-Mobile-Inc.-+-UI/UX-Designer-Inter" transform="translate(409.000000, 0.000000)" sketch:alignment="middle" sketch:type="MSTextLayer">
                    <text id="Designs-logos,-banne" font-weight="normal">
                        <tspan x="18.8457031" y="113">Designs logos, banners and digital prints for </tspan>
                        <tspan x="167.304688" y="146">marketing needs. </tspan>
                    </text>
                    <text id="Lucky-Lincoln-Gaming" font-weight="526">
                        <tspan x="115.287109" y="26">Lucky Lincoln Gaming Inc.</tspan>
                        <tspan x="107.705078" y="59">Part-time Graphic Designer</tspan>
                    </text>
                </g>
            </g>
        </g>
    </g>
</svg>