<?xml version="1.0" encoding="UTF-8" standalone="no"?>
<svg width="381px" height="411px" viewBox="0 0 381 411" version="1.1" xmlns="http://www.w3.org/2000/svg" xmlns:xlink="http://www.w3.org/1999/xlink" xmlns:sketch="http://www.bohemiancoding.com/sketch/ns">
    <!-- Generator: Sketch 3.4.2 (15857) - http://www.bohemiancoding.com/sketch -->
    <title>XMLID_18_</title>
    <desc>Created with Sketch.</desc>
    <defs></defs>
    <g id="assets" stroke="none" stroke-width="1" fill="none" fill-rule="evenodd" sketch:type="MSPage">
        <g id="Artboard-20" sketch:type="MSArtboardGroup" transform="translate(-6.000000, -10.000000)" fill="#7CC9BF">
            <g id="sad_plane" sketch:type="MSLayerGroup" transform="translate(6.000000, 10.000000)">
                <path d="M234.88022,62.7411168 C233.414835,80.5177665 231.530769,101.222335 228.390659,123.390863 C225.45989,145.559391 221.482418,168.982741 216.667582,192.406091 C214.364835,204.117766 211.643407,215.620305 208.921978,227.122843 C206.200549,238.416244 203.26978,249.709645 200.12967,260.375635 C196.98956,271.041624 193.849451,281.28934 190.918681,291.118782 C187.987912,300.948223 184.638462,309.941117 181.707692,318.306599 C181.707692,318.724873 181.498352,318.93401 181.289011,319.352284 C179.404945,324.998985 177.73022,330.436548 176.264835,334.828426 C176.264835,334.828426 176.264835,334.828426 176.474176,335.037563 L223.785165,390.040609 C224.203846,390.458883 224.203846,391.295431 223.994505,391.713706 L215.411538,409.908629 C215.202198,410.536041 214.574176,410.745178 214.155495,410.326904 L163.076374,370.381726 C161.82033,373.518782 161.192308,374.982741 161.192308,374.982741 C159.936264,377.91066 157.424176,379.792893 154.702747,379.792893 C153.656044,379.792893 152.818681,379.583756 151.981319,379.165482 C148.631868,377.492386 147.166484,373.727919 147.794505,369.963452 C147.794505,369.963452 148.213187,368.499492 148.841209,365.571574 L89.1791209,365.571574 C88.7604396,365.571574 88.3417582,365.153299 88.3417582,364.525888 L90.8538462,344.239594 C90.8538462,343.612183 91.4818681,342.984772 91.9005495,342.984772 L156.586813,328.763452 C157.214835,323.953299 157.842857,318.515736 158.68022,313.078173 C160.773626,295.719797 163.285714,275.433503 166.007143,253.683249 C168.519231,232.142132 171.240659,208.927919 173.962088,185.922843 C174.380769,181.949239 174.799451,177.766497 175.218132,173.792893 L172.915385,174.420305 L172.915385,174.420305 L2.30274725,218.548223 C0.418681319,218.966497 -0.209340659,217.502538 0.628021978,215.411168 L18.8406593,174.420305 C20.7247253,170.237563 25.5395604,165.636548 29.517033,164.381726 L173.543407,117.535025 L180.87033,115.025381 C182.754396,94.5299492 184.429121,75.4984772 185.685165,58.9766497 C186.941209,41.6182741 192.593407,27.6060914 198.245604,17.7766497 C199.501648,15.4761421 200.757692,13.5939086 202.013736,11.7116751 C206.40989,5.64670051 209.968681,2.09137056 209.968681,2.09137056 C212.271429,-1.42774681e-13 215.83022,-1.42774681e-13 217.923626,2.30050761 C217.923626,2.30050761 217.923626,2.30050761 217.923626,2.50964467 C217.923626,2.50964467 218.342308,3.13705584 219.389011,4.18274112 C220.017033,4.81015228 220.645055,5.85583756 221.482418,6.90152284 C223.366484,9.82944162 226.087912,13.8030457 228.390659,19.2406091 C232.577473,29.906599 236.345604,44.964467 234.88022,62.7411168 L234.88022,62.7411168 Z M377.85989,274.17868 L236.345604,190.523858 C240.113736,171.283249 243.463187,152.670051 245.975275,134.475127 L364.043407,214.156345 C367.602198,216.66599 371.37033,222.31269 371.998352,226.913706 L379.953297,271.669036 C380.581319,273.969543 379.534615,275.224365 377.85989,274.17868 L377.85989,274.17868 Z" id="XMLID_18_" sketch:type="MSShapeGroup"></path>
            </g>
        </g>
    </g>
</svg>