<?xml version="1.0" encoding="UTF-8" standalone="no"?>
<svg width="588px" height="750px" viewBox="0 0 588 750" version="1.1" xmlns="http://www.w3.org/2000/svg" xmlns:xlink="http://www.w3.org/1999/xlink">
    <!-- Generator: Sketch 50.2 (55047) - http://www.bohemiancoding.com/sketch -->
    <title>bln2</title>
    <desc>Created with Sketch.</desc>
    <defs>
        <path d="M0.393483465,8.86808246 C-0.426040783,3.97037576 2.93976703,0 7.91367548,0 L114.756513,0 C119.729325,0 123.089756,3.96320559 122.259535,8.86808246 L109.532501,84.0583481 C108.703494,88.9560548 104.010752,92.9264305 99.0380884,92.9264305 L23.4521746,92.9264305 C18.4852777,92.9264305 13.7931712,88.9483739 12.9749322,84.0583481 L0.393483465,8.86808246 Z" id="path-1"></path>
        <path d="M222.86501,620.613024 L369.112423,620.613024 C396.705402,592.494987 424.477847,562.925994 453.991895,532.022815 C522.847419,459.926483 588,379.606273 588,286.611608 C588,128.320388 456.371716,0 294,0 C131.628284,0 0,128.320388 0,286.611608 C0,419.348491 130.842659,527.792582 222.86501,620.613024 Z" id="path-3"></path>
        <path d="M222.86501,620.613024 L369.112423,620.613024 C396.705402,592.494987 424.477847,562.925994 453.991895,532.022815 C522.847419,459.926483 588,379.606273 588,286.611608 C588,128.320388 456.371716,0 294,0 C131.628284,0 0,128.320388 0,286.611608 C0,419.348491 130.842659,527.792582 222.86501,620.613024 Z" id="path-5"></path>
    </defs>
    <g id="Page-1" stroke="none" stroke-width="1" fill="none" fill-rule="evenodd">
        <g id="bln2">
            <g id="ballon-+-University-of-Illino-+-B.S-Computer-Enginee">
                <g id="Group" transform="translate(217.896458, 592.005450)">
                    <path d="M0.697941101,6.77249618 L23.731639,77.6573804" id="Line" stroke="#947882"></path>
                    <path d="M44.8561588,0.391400627 L54.2079506,64.416124" id="Line-Copy" stroke="#947882"></path>
                    <path d="M101.362411,0.363776837 L110.714203,64.3885002" id="Line-Copy" stroke="#795663" transform="translate(106.038307, 32.376139) scale(-1, 1) translate(-106.038307, -32.376139) "></path>
                    <path d="M131.838722,6.77249618 L154.87242,77.6573804" id="Line" stroke="#795663" transform="translate(143.355571, 42.214938) scale(-1, 1) translate(-143.355571, -42.214938) "></path>
                </g>
                <g id="Rectangle-7" transform="translate(233.918256, 656.893733)">
                    <g id="Mask" fill="#795663" fill-rule="nonzero">
                        <path d="M0.393483465,8.86808246 C-0.426040783,3.97037576 2.93976703,0 7.91367548,0 L114.756513,0 C119.729325,0 123.089756,3.96320559 122.259535,8.86808246 L109.532501,84.0583481 C108.703494,88.9560548 104.010752,92.9264305 99.0380884,92.9264305 L23.4521746,92.9264305 C18.4852777,92.9264305 13.7931712,88.9483739 12.9749322,84.0583481 L0.393483465,8.86808246 Z" id="path-1"></path>
                    </g>
                    <g id="Clipped">
                        <mask id="mask-2" fill="white">
                            <use xlink:href="#path-1"></use>
                        </mask>
                        <g id="path-1"></g>
                        <rect id="Rectangle-path" fill-opacity="0.2" fill="#000000" fill-rule="nonzero" mask="url(#mask-2)" x="60.8828338" y="-18.4250681" width="66.4904632" height="114.555858"></rect>
                    </g>
                </g>
                <g id="Rectangle-6">
                    <g id="Mask" fill="#F6A623" fill-rule="nonzero">
                        <path d="M222.86501,620.613024 L369.112423,620.613024 C396.705402,592.494987 424.477847,562.925994 453.991895,532.022815 C522.847419,459.926483 588,379.606273 588,286.611608 C588,128.320388 456.371716,0 294,0 C131.628284,0 0,128.320388 0,286.611608 C0,419.348491 130.842659,527.792582 222.86501,620.613024 Z" id="path-3"></path>
                    </g>
                    <g id="Clipped">
                        <mask id="mask-4" fill="white">
                            <use xlink:href="#path-3"></use>
                        </mask>
                        <g id="path-3"></g>
                        <path d="M262.350125,620.844687 L326.761682,620.844687 C330.565655,627.820422 291.28327,737.912935 377.981277,620.844687 L451.814714,620.844687 L451.814714,552.752044 L426.268661,552.752044 C495.168366,450.187744 548.412935,340.898528 536.015391,231.799167 C516.099494,56.5377241 379.514171,-3.18496163e-08 345.815702,-3.18496163e-08 C335.804912,-3.18496163e-08 329.85186,-15.7565683 356.735654,22.1245675 C383.619447,60.0057033 450.389413,154.987557 450.389416,276.587516 C450.38942,398.916855 403.655783,493.898626 367.160836,552.752044 L326.649037,552.752044 C339.577321,480.271385 351.678474,361.156332 351.678474,253.394768 C351.678474,48.8539593 313.270735,-38.6911603 296.002725,-38.6911603 C278.734715,-38.6911603 240.326975,48.8539593 240.326975,253.394768 C240.326975,377.710172 250.990821,486.520713 263.136675,552.752044 L221.897055,552.752044 C185.406194,493.895216 138.696372,398.930681 138.696376,276.632515 C138.696379,155.032556 205.466345,60.0507022 232.350138,22.1695665 C259.233932,-15.7115693 253.28088,0.0449989318 243.27009,0.0449989318 C209.571621,0.0449989318 72.9862977,56.5827231 53.0704014,231.844166 C40.6746698,340.927572 93.9018537,450.200777 162.786903,552.752044 L140.190736,552.752044 L140.190736,620.844687 L211.071192,620.844687 C298.005433,738.246573 258.344312,627.375547 262.350125,620.844687 Z" id="Shape" fill="#EBF2DC" fill-rule="nonzero" mask="url(#mask-4)"></path>
                    </g>
                    <g id="Oval-10-Clipped">
                        <mask id="mask-6" fill="white">
                            <use xlink:href="#path-5"></use>
                        </mask>
                        <g id="path-3"></g>
                        <path d="M262.240503,-133.985619 C287.009033,-141.700858 312.937073,-145.798365 339.63744,-145.798365 C514.410823,-145.798365 656.092643,29.7657897 656.092643,246.33515 C656.092643,462.90451 503.325786,632.917949 328.552403,632.917949 C310.367059,632.917949 303.625021,636.5679 286.278545,632.917954 C325.195942,559.41375 339.723643,410.484517 339.723643,238.724796 C339.723643,85.5560221 304.460553,-52.3000542 262.240503,-133.985619 Z" id="Oval-10" fill-opacity="0.2" fill="#000000" fill-rule="nonzero" mask="url(#mask-6)"></path>
                    </g>
                </g>
            </g>
        </g>
    </g>
</svg>