<?xml version="1.0" encoding="UTF-8" standalone="no"?>
<svg width="479px" height="619px" viewBox="0 0 479 619" version="1.1" xmlns="http://www.w3.org/2000/svg" xmlns:xlink="http://www.w3.org/1999/xlink" xmlns:sketch="http://www.bohemiancoding.com/sketch/ns">
    <!-- Generator: Sketch 3.4.2 (15857) - http://www.bohemiancoding.com/sketch -->
    <title>bln3</title>
    <desc>Created with Sketch.</desc>
    <defs>
        <path id="path-1" d="M0.606825752,8.86858733 C-0.212745151,3.97060179 3.1530769,0 8.12399284,0 L90.5545773,0 C95.5257649,0 98.8843696,3.96621623 98.0545728,8.86858733 L88.4039867,65.8834563 C87.5749322,70.7814418 82.8825197,74.7520436 77.8980706,74.7520436 L20.6357634,74.7520436 C15.6625607,74.7520436 10.9673236,70.7858274 10.1470188,65.8834563 L0.606825752,8.86858733 Z"></path>
        <path id="path-3" d="M179.277465,499.234626 L296.922068,499.234626 C319.118461,476.615865 341.45922,452.829924 365.200963,427.970734 C420.589846,369.974875 473,305.36355 473,230.556616 C473,103.223713 367.115343,0 236.5,0 C105.884657,0 0,103.223713 0,230.556616 C0,337.333055 105.252683,424.567843 179.277465,499.234626 Z"></path>
        <path id="path-5" d="M179,163 L179,196.133603 L205.382353,196.133603 L205.382353,315.866397 L179,315.866397 L179,349 L294,349 L294,315.866397 L268.294118,315.866397 L268.294118,196.133603 L294,196.133603 L294,163 L179,163 Z"></path>
    </defs>
    <g id="assets" stroke="none" stroke-width="1" fill="none" fill-rule="evenodd" sketch:type="MSPage">
        <g id="bln3" sketch:type="MSArtboardGroup">
            <g id="ballon-+-University-of-Illino-+-B.S-Computer-Enginee" sketch:type="MSLayerGroup">
                <g id="Group" transform="translate(175.280654, 476.222071)" stroke-width="5" sketch:type="MSShapeGroup" stroke-linecap="square">
                    <path d="M0.561439015,5.44794336 L19.0902471,62.4692873" id="Line" stroke="#947882"></path>
                    <path d="M36.0832706,0.314851185 L43.6060555,51.8177324" id="Line-Copy" stroke="#947882"></path>
                    <path d="M81.5381301,0.292630007 L89.0609149,51.7955112" id="Line-Copy" stroke="#795663" transform="translate(85.299522, 26.044071) scale(-1, 1) translate(-85.299522, -26.044071) "></path>
                    <path d="M106.025868,5.44794336 L124.554677,62.4692873" id="Line" stroke="#795663" transform="translate(115.304307, 33.970626) scale(-1, 1) translate(-115.304307, -33.970626) "></path>
                </g>
                <g id="Rectangle-7" transform="translate(188.168937, 528.419619)">
                    <mask id="mask-2" sketch:name="Mask" fill="white">
                        <use xlink:href="#path-1"></use>
                    </mask>
                    <use id="Mask" fill="#795663" sketch:type="MSShapeGroup" xlink:href="#path-1"></use>
                    <rect fill-opacity="0.2" fill="#000000" sketch:type="MSShapeGroup" mask="url(#mask-2)" x="48.9754768" y="-14.8215259" width="53.486376" height="92.1512262"></rect>
                </g>
                <g id="Rectangle-6">
                    <mask id="mask-4" sketch:name="Mask" fill="white">
                        <use xlink:href="#path-3"></use>
                    </mask>
                    <use id="Mask" fill="#002058" sketch:type="MSShapeGroup" xlink:href="#path-3"></use>
                    <path d="M211.040152,499.420981 L262.85421,499.420981 C265.914209,505.032414 234.314603,593.593228 304.056368,499.420981 L363.449591,499.420981 L363.449591,444.645777 L342.89979,444.645777 C398.324213,362.140821 441.155303,274.226197 431.182449,186.464296 C415.161668,45.480176 305.28946,-2.56206789e-08 278.181678,-2.56206789e-08 C270.128782,-2.56206789e-08 265.340017,-12.6749265 286.965926,17.7974837 C308.591834,48.269894 362.303048,124.675365 362.303051,222.493019 C362.303054,320.897402 324.709499,397.302806 295.352169,444.645777 L262.763596,444.645777 C273.16339,386.340757 282.89782,290.522016 282.89782,203.836268 C282.89782,39.2991884 252.001798,-31.1240116 238.111035,-31.1240116 C224.220272,-31.1240116 193.324251,39.2991884 193.324251,203.836268 C193.324251,303.838284 201.90248,391.367852 211.672869,444.645777 L178.498821,444.645777 C149.144778,397.300063 111.570381,320.908524 111.570384,222.529217 C111.570387,124.711563 165.2816,48.3060921 186.907509,17.8336819 C208.533418,-12.6387284 203.744653,0.0361981203 195.691756,0.0361981203 C168.583974,0.0361981203 58.7117667,45.5163742 42.6909861,186.500494 C32.7195898,274.24956 75.5366952,362.151305 130.949329,444.645777 L112.77248,444.645777 L112.77248,499.420981 L169.790261,499.420981 C239.722057,593.861614 207.817788,504.674547 211.040152,499.420981 Z" fill="#FFFBFE" sketch:type="MSShapeGroup" mask="url(#mask-4)"></path>
                    <g id="Shape">
                        <use stroke="#003676" stroke-width="16" fill="#F88216" fill-rule="evenodd" sketch:type="MSShapeGroup" mask="url(#mask-4)" xlink:href="#path-5"></use>
                        <use stroke="#FFFFFF" stroke-width="7" fill="none" xlink:href="#path-5"></use>
                    </g>
                    <path d="M210.951969,-107.780949 C230.876314,-113.987255 251.733394,-117.283379 273.21175,-117.283379 C413.803264,-117.283379 527.775204,23.9442492 527.775204,198.157357 C527.775204,372.370465 404.886219,509.132976 264.294705,509.132976 C249.666018,509.132976 244.242576,512.069076 230.288693,509.13298 C261.594695,450.004599 273.281094,330.202681 273.281094,192.035422 C273.281094,68.8231266 244.914696,-42.0713021 210.951969,-107.780949 L210.951969,-107.780949 Z" id="Oval-10" fill-opacity="0.2" fill="#000000" sketch:type="MSShapeGroup" mask="url(#mask-4)"></path>
                </g>
            </g>
        </g>
    </g>
</svg>