<?xml version="1.0" encoding="UTF-8" standalone="no"?>
<svg width="2563px" height="560px" viewBox="0 0 2563 560" version="1.1" xmlns="http://www.w3.org/2000/svg" xmlns:xlink="http://www.w3.org/1999/xlink">
    <!-- Generator: Sketch 50.2 (55047) - http://www.bohemiancoding.com/sketch -->
    <title>blnb</title>
    <desc>Created with Sketch.</desc>
    <defs>
        <path d="M2.99533756,23.7121567 C-3.33791057,10.818931 3.1777636,0.366906475 17.5366618,0.366906475 L249.750226,0.366906475 C264.114426,0.366906475 268.823679,9.7055532 260.253708,21.2454608 L225.441832,68.1214457 C216.878545,79.6523528 198.293435,89 183.945437,89 L61.0564028,89 C46.7018638,89 29.9321845,78.5501859 23.5978506,65.6547498 L2.99533756,23.7121567 Z" id="path-1"></path>
        <path d="M2.99533756,23.7121567 C-3.33791057,10.818931 3.1777636,0.366906475 17.5366618,0.366906475 L249.750226,0.366906475 C264.114426,0.366906475 268.823679,9.7055532 260.253708,21.2454608 L225.441832,68.1214457 C216.878545,79.6523528 198.293435,89 183.945437,89 L61.0564028,89 C46.7018638,89 29.9321845,78.5501859 23.5978506,65.6547498 L2.99533756,23.7121567 Z" id="path-3"></path>
        <path d="M2.99533756,23.7121567 C-3.33791057,10.818931 3.1777636,0.366906475 17.5366618,0.366906475 L249.750226,0.366906475 C264.114426,0.366906475 268.823679,9.7055532 260.253708,21.2454608 L225.441832,68.1214457 C216.878545,79.6523528 198.293435,89 183.945437,89 L61.0564028,89 C46.7018638,89 29.9321845,78.5501859 23.5978506,65.6547498 L2.99533756,23.7121567 Z" id="path-5"></path>
        <path d="M632.087201,491.505122 C1034.10234,491.505122 1360,342.471952 1360,245.752561 C1360,149.03317 1034.10234,0 632.087201,0 C230.072062,0 2.87540321e-14,103.506133 0,245.752561 C2.87540321e-14,387.998989 230.072062,491.505122 632.087201,491.505122 Z" id="path-7"></path>
        <path d="M632.087201,491.505122 C1034.10234,491.505122 1360,342.471952 1360,245.752561 C1360,149.03317 1034.10234,0 632.087201,0 C230.072062,0 2.87540321e-14,103.506133 0,245.752561 C2.87540321e-14,387.998989 230.072062,491.505122 632.087201,491.505122 Z" id="path-9"></path>
        <path d="M632.087201,491.505122 C1034.10234,491.505122 1360,342.471952 1360,245.752561 C1360,149.03317 1034.10234,0 632.087201,0 C230.072062,0 2.87540321e-14,103.506133 0,245.752561 C2.87540321e-14,387.998989 230.072062,491.505122 632.087201,491.505122 Z" id="path-11"></path>
        <path d="M632.087201,491.505122 C1034.10234,491.505122 1360,342.471952 1360,245.752561 C1360,149.03317 1034.10234,0 632.087201,0 C230.072062,0 2.87540321e-14,103.506133 0,245.752561 C2.87540321e-14,387.998989 230.072062,491.505122 632.087201,491.505122 Z" id="path-13"></path>
        <path d="M632.087201,491.505122 C1034.10234,491.505122 1360,342.471952 1360,245.752561 C1360,149.03317 1034.10234,0 632.087201,0 C230.072062,0 2.87540321e-14,103.506133 0,245.752561 C2.87540321e-14,387.998989 230.072062,491.505122 632.087201,491.505122 Z" id="path-15"></path>
    </defs>
    <g id="Page-1" stroke="none" stroke-width="1" fill="none" fill-rule="evenodd">
        <g id="blnb">
            <g id="Line-+-Group-+-Rectangle-7">
                <polygon id="Line" stroke="#795663" stroke-width="3" stroke-linecap="square" points="1501.26451 50.3762123 1502.15547 49.1587346 1499.67955 47.40631 1498.78859 48.6237877 1355.35511 244.623788 1354.46416 245.841265 1355.35511 247.376212 1498.78859 443.376212 1499.67955 444.59369 1502.15547 442.841265 1501.26451 441.623788 1358.10635 246"></polygon>
                <g id="Group">
                    <g id="Path-37" transform="translate(539.000000, 471.000000)">
                        <g id="Mask" fill="#D5D5D5" fill-rule="nonzero">
                            <path d="M2.99533756,23.7121567 C-3.33791057,10.818931 3.1777636,0.366906475 17.5366618,0.366906475 L249.750226,0.366906475 C264.114426,0.366906475 268.823679,9.7055532 260.253708,21.2454608 L225.441832,68.1214457 C216.878545,79.6523528 198.293435,89 183.945437,89 L61.0564028,89 C46.7018638,89 29.9321845,78.5501859 23.5978506,65.6547498 L2.99533756,23.7121567 Z" id="path-1"></path>
                        </g>
                        <g id="Oval-5-Clipped">
                            <mask id="mask-2" fill="white">
                                <use xlink:href="#path-1"></use>
                            </mask>
                            <g id="path-1"></g>
                            <circle id="Oval-5" stroke="#B7B7B7" stroke-width="5" fill="#E5E5E5" fill-rule="nonzero" mask="url(#mask-2)" cx="95.5" cy="53.5" r="17.5"></circle>
                        </g>
                        <g id="Oval-5-Copy-Clipped">
                            <mask id="mask-4" fill="white">
                                <use xlink:href="#path-3"></use>
                            </mask>
                            <g id="path-1"></g>
                            <circle id="Oval-5-Copy" stroke="#B3B3B3" stroke-width="5" fill="#E5E5E5" fill-rule="nonzero" mask="url(#mask-4)" cx="170.5" cy="53.5" r="17.5"></circle>
                        </g>
                        <g id="Clipped">
                            <mask id="mask-6" fill="white">
                                <use xlink:href="#path-5"></use>
                            </mask>
                            <g id="path-1"></g>
                            <path d="M18.3230791,16.4156265 L164.234177,89.2600882 C180.540263,97.4007167 204.517427,93.8652316 217.786191,81.3656985 L307.30074,-2.95941925 L18.3230791,16.4156265 Z" id="Shape" fill-opacity="0.2" fill="#000000" fill-rule="nonzero" mask="url(#mask-6)"></path>
                        </g>
                    </g>
                    <path d="M1006.2601,381.863939 C1006.2601,381.863939 1084.26934,328.576944 1110.51097,320.935384 C1136.75261,313.293824 1341.08702,375.501701 1341.08701,390.441929 C1336.40312,406.047646 1306.93514,482.352632 1306.93514,482.352632 L1006.2601,381.863939 Z" id="Path-30" fill="#D5D5D5" fill-rule="nonzero" transform="translate(1173.673555, 401.320201) scale(-1, 1) rotate(-180.000000) translate(-1173.673555, -401.320201) "></path>
                    <path d="M1006.2601,68.62653 C1006.2601,68.62653 1084.26934,15.3395351 1110.51097,7.69797497 C1136.75261,0.0564148001 1341.08702,62.2642922 1341.08701,77.2045203 C1336.40312,92.8102366 1306.93514,169.115223 1306.93514,169.115223 L1006.2601,68.62653 Z" id="Path-30" fill="#E5E5E5" fill-rule="nonzero"></path>
                    <path d="M1041.67667,54.9844097 C1041.67667,54.9844097 1074.42462,46.7280048 1090.87815,46.7280048 C1107.33168,46.7280048 1315.76556,118.172353 1315.76557,126.036729 C1315.76557,133.901105 1295.4179,162.181572 1295.4179,162.181572 L1041.67667,54.9844097 Z" id="Path-34" fill-opacity="0.1" fill="#000000" fill-rule="nonzero"></path>
                    <g id="Path-+-Path-Copy-3-+-Path-Copy-2-+-Path-Copy-+-Path-37-Mask">
                        <g id="Mask" fill="#E5E5E5" fill-rule="nonzero">
                            <path d="M632.087201,491.505122 C1034.10234,491.505122 1360,342.471952 1360,245.752561 C1360,149.03317 1034.10234,0 632.087201,0 C230.072062,0 2.87540321e-14,103.506133 0,245.752561 C2.87540321e-14,387.998989 230.072062,491.505122 632.087201,491.505122 Z" id="path-3"></path>
                        </g>
                        <g id="Path-Clipped">
                            <mask id="mask-8" fill="white">
                                <use xlink:href="#path-7"></use>
                            </mask>
                            <g id="path-3"></g>
                            <path d="M733.865861,311.726619 C1202.3613,311.726619 1322.15376,257.371354 1331.75697,270.750807 C1341.49111,284.312658 1023.37316,402.054107 655.898348,402.051792 C288.423537,402.049478 3.48697833,284.312657 13.2211144,270.750807 C22.8243328,257.371354 265.370426,311.726619 733.865861,311.726619 Z" id="Path" fill-opacity="0.15" fill="#000000" fill-rule="nonzero" mask="url(#mask-8)"></path>
                        </g>
                        <g id="Path-Copy-3-Clipped">
                            <mask id="mask-10" fill="white">
                                <use xlink:href="#path-9"></use>
                            </mask>
                            <g id="path-3"></g>
                            <path d="M625.444416,208.368673 C156.948982,208.368673 21.8120805,239.356697 12.2088623,225.977245 C2.47472623,212.415394 325.586329,145.236985 693.061141,145.239299 C1060.53595,145.241613 1340.47886,212.415394 1330.74472,225.977245 C1321.1415,239.356697 1093.93985,208.368673 625.444416,208.368673 Z" id="Path-Copy-3" fill-opacity="0.1" fill="#000000" fill-rule="nonzero" mask="url(#mask-10)"></path>
                        </g>
                        <g id="Path-Copy-2-Clipped">
                            <mask id="mask-12" fill="white">
                                <use xlink:href="#path-11"></use>
                            </mask>
                            <g id="path-3"></g>
                            <path d="M772.931692,262.938219 C1242.84465,262.938219 1327.82911,243.124741 1337.43233,254.250018 C1347.16646,265.526962 1063.7836,301.011168 696.308785,301.009243 C328.833973,301.007319 -1.74001413,265.526962 7.99412197,254.250018 C17.5973403,243.124741 303.018732,262.938218 772.931692,262.938219 Z" id="Path-Copy-2" fill-opacity="0.2" fill="#000000" fill-rule="nonzero" mask="url(#mask-12)"></path>
                        </g>
                        <g id="Path-Copy-Clipped">
                            <mask id="mask-14" fill="white">
                                <use xlink:href="#path-13"></use>
                            </mask>
                            <g id="path-3"></g>
                            <path d="M658.933226,411.376788 C1111.06089,411.376777 1314.07525,272.479268 1323.4505,285.85872 C1332.95356,299.420571 1104.57701,475.126418 629.147576,482.41267 C153.718144,489.698921 7.70464249,299.420571 17.2077029,285.85872 C26.5829533,272.479268 206.805562,411.376798 658.933226,411.376788 Z" id="Path-Copy" fill-opacity="0.1" fill="#000000" fill-rule="nonzero" mask="url(#mask-14)"></path>
                        </g>
                        <g id="Path-37-Clipped">
                            <mask id="mask-16" fill="white">
                                <use xlink:href="#path-15"></use>
                            </mask>
                            <g id="path-3"></g>
                            <path d="M1015.84945,251.165291 L1099.91292,406.388932 C1108.59135,422.413692 1128.71044,428.529008 1144.8341,420.056317 L1476.50561,245.76895 L1317.49356,245.76895 L1015.84945,251.165291 Z" id="Path-37" fill-opacity="0.2" fill="#000000" fill-rule="nonzero" mask="url(#mask-16)"></path>
                        </g>
                    </g>
                    <path d="M1162.14548,254.820144 C1248.2386,254.820144 1318.03086,250.53625 1318.03086,245.251799 C1318.03086,239.967347 1248.2386,235.683453 1162.14548,235.683453 C1076.05236,235.683453 1006.2601,235.683453 1006.2601,245.251799 C1006.2601,254.820144 1076.05236,254.820144 1162.14548,254.820144 Z" id="Oval-3" stroke="#E5E5E5" stroke-width="2" fill="#B3B3B3" fill-rule="nonzero"></path>
                </g>
                <path d="M1494,52.9981475 C1494,47.4763231 1498.47657,43 1504.00492,43 L2563,43 L2414.875,246 L2563,449 L1504.00492,449 C1498.47936,449 1494,444.527151 1494,439.001852 L1494,52.9981475 Z" id="Rectangle-7" fill="#B8E986" fill-rule="nonzero"></path>
            </g>
        </g>
    </g>
</svg>