<?xml version="1.0" encoding="UTF-8" standalone="no"?>
<svg width="635px" height="360px" viewBox="0 0 635 360" version="1.1" xmlns="http://www.w3.org/2000/svg" xmlns:xlink="http://www.w3.org/1999/xlink" xmlns:sketch="http://www.bohemiancoding.com/sketch/ns">
    <!-- Generator: Sketch 3.4.2 (15857) - http://www.bohemiancoding.com/sketch -->
    <title>cld-sm2</title>
    <desc>Created with Sketch.</desc>
    <defs>
        <filter x="-50%" y="-50%" width="200%" height="200%" filterUnits="objectBoundingBox" id="filter-1">
            <feOffset dx="0" dy="2" in="SourceAlpha" result="shadowOffsetOuter1"></feOffset>
            <feGaussianBlur stdDeviation="2" in="shadowOffsetOuter1" result="shadowBlurOuter1"></feGaussianBlur>
            <feColorMatrix values="0 0 0 0 0   0 0 0 0 0   0 0 0 0 0  0 0 0 0.35 0" in="shadowBlurOuter1" type="matrix" result="shadowMatrixOuter1"></feColorMatrix>
            <feMerge>
                <feMergeNode in="shadowMatrixOuter1"></feMergeNode>
                <feMergeNode in="SourceGraphic"></feMergeNode>
            </feMerge>
        </filter>
    </defs>
    <g id="Page-2" stroke="none" stroke-width="1" fill="none" fill-rule="evenodd" sketch:type="MSPage">
        <g id="cld-sm2" sketch:type="MSArtboardGroup">
            <path d="M59.7450615,169.039922 C57.8421809,161.777301 56.8415584,154.248424 56.8415584,146.53216 C56.8415584,86.3709963 117.667455,37.6007372 192.7,37.6007372 C197.430544,37.6007372 202.104619,37.7945927 206.710541,38.1729362 C220.999418,17.5263312 244.860783,4 271.883766,4 C300.080752,4 324.835442,18.7271532 338.864587,40.9036782 C363.704968,18.3057654 400.474958,4 441.505844,4 C516.3164,4 576.962338,51.5570685 576.962338,110.221685 C576.962338,134.347533 566.705478,156.594796 549.424698,174.428281 C595.144615,187.737339 626,212.973457 626,241.914898 C626,284.716123 558.515648,319.413372 475.269481,319.413372 C442.43611,319.413372 412.054673,314.015812 387.298633,304.852336 C361.287275,331.411734 319.100933,348.67853 271.481818,348.67853 C208.163647,348.67853 154.450882,318.150004 135.597786,275.839786 C123.042944,280.806718 108.508146,283.644845 93.0168831,283.644845 C45.5110703,283.644845 7,256.954654 7,224.030634 C7,199.281714 28.7606767,178.055218 59.7450615,169.039922 L59.7450615,169.039922 L59.7450615,169.039922 Z" id="Oval-32" fill="#FAFAFA" filter="url(#filter-1)" sketch:type="MSShapeGroup"></path>
            <text id="Dank-It-" sketch:type="MSTextLayer" font-family="Open Sans" font-size="24" font-weight="normal" sketch:alignment="middle" fill="#2A2B2E">
                <tspan x="277.047617" y="99">Dank It </tspan>
                <tspan x="172.498789" y="144" font-weight="526">Best First Time Project at </tspan>
                <tspan x="239.436289" y="177" font-weight="526">Hack@Brown </tspan>
                <tspan x="400.463632" y="177"></tspan>
                <tspan x="236.108164" y="222">February 2016 </tspan>
                <tspan x="231.754648" y="267">UI/UX Designer </tspan>
            </text>
        </g>
    </g>
</svg>