<?xml version="1.0" encoding="UTF-8" standalone="no"?>
<svg width="619px" height="340px" viewBox="0 0 619 340" version="1.1" xmlns="http://www.w3.org/2000/svg" xmlns:xlink="http://www.w3.org/1999/xlink">
    <!-- Generator: Sketch 50.2 (55047) - http://www.bohemiancoding.com/sketch -->
    <title>cld-sm1</title>
    <desc>Created with Sketch.</desc>
    <defs></defs>
    <g id="Page-1" stroke="none" stroke-width="1" fill="none" fill-rule="evenodd">
        <g id="cld-sm1" fill="#FAFAFA" fill-rule="nonzero">
            <path d="M519.918525,271.172537 C526.377594,272.253411 533.161823,272.829313 540.158947,272.829313 C583.701658,272.829313 619,250.527492 619,223.016801 C619,195.506111 583.701658,173.204289 540.158947,173.204289 C538.805277,173.204289 537.459575,173.225844 536.122654,173.268439 C538.748846,166.438953 540.158947,159.205008 540.158947,151.716539 C540.158947,110.000982 496.400673,76.1838416 442.422105,76.1838416 C423.779372,76.1838416 406.35574,80.2176322 391.53287,87.217442 C376.753676,36.9030089 328.266333,0 270.731053,0 C208.800069,0 157.352364,42.7572 147.143086,98.973926 C93.2168098,99.017919 49.52,130.340201 49.52,168.971854 C49.52,177.351401 51.5759109,185.387047 55.3461836,192.834177 C22.9615299,200.050644 0,218.131699 0,239.2954 C0,266.80609 38.7990036,289.107912 86.66,289.107912 C96.530058,289.107912 106.014727,288.159458 114.853204,286.41246 C129.600217,316.772925 182.565804,339.245995 245.645263,339.245995 C293.284509,339.245995 335.155143,326.428115 359.150925,307.075213 C376.173463,313.740078 398.184871,317.758245 422.223158,317.758245 C476.201725,317.758245 519.96,297.497114 519.96,272.503741 C519.96,272.058475 519.946112,271.614711 519.918525,271.172537 Z" id="Oval-18"></path>
        </g>
    </g>
</svg>