<?xml version="1.0" encoding="UTF-8" standalone="no"?>
<svg width="635px" height="360px" viewBox="0 0 635 360" version="1.1" xmlns="http://www.w3.org/2000/svg" xmlns:xlink="http://www.w3.org/1999/xlink" xmlns:sketch="http://www.bohemiancoding.com/sketch/ns">
    <!-- Generator: Sketch 3.4.2 (15857) - http://www.bohemiancoding.com/sketch -->
    <title>cld-sm3</title>
    <desc>Created with Sketch.</desc>
    <defs>
        <filter x="-50%" y="-50%" width="200%" height="200%" filterUnits="objectBoundingBox" id="filter-1">
            <feOffset dx="0" dy="2" in="SourceAlpha" result="shadowOffsetOuter1"></feOffset>
            <feGaussianBlur stdDeviation="2" in="shadowOffsetOuter1" result="shadowBlurOuter1"></feGaussianBlur>
            <feColorMatrix values="0 0 0 0 0   0 0 0 0 0   0 0 0 0 0  0 0 0 0.35 0" in="shadowBlurOuter1" type="matrix" result="shadowMatrixOuter1"></feColorMatrix>
            <feMerge>
                <feMergeNode in="shadowMatrixOuter1"></feMergeNode>
                <feMergeNode in="SourceGraphic"></feMergeNode>
            </feMerge>
        </filter>
    </defs>
    <g id="Page-2" stroke="none" stroke-width="1" fill="none" fill-rule="evenodd" sketch:type="MSPage">
        <g id="cld-sm3" sketch:type="MSArtboardGroup">
            <path d="M524.918525,278.172537 C531.377594,279.253411 538.161823,279.829313 545.158947,279.829313 C588.701658,279.829313 624,257.527492 624,230.016801 C624,202.506111 588.701658,180.204289 545.158947,180.204289 C543.805277,180.204289 542.459575,180.225844 541.122654,180.268439 C543.748846,173.438953 545.158947,166.205008 545.158947,158.716539 C545.158947,117.000982 501.400673,83.1838416 447.422105,83.1838416 C428.779372,83.1838416 411.35574,87.2176322 396.53287,94.217442 C381.753676,43.9030089 333.266333,7 275.731053,7 C213.800069,7 162.352364,49.7572 152.143086,105.973926 C98.2168098,106.017919 54.52,137.340201 54.52,175.971854 C54.52,184.351401 56.5759109,192.387047 60.3461836,199.834177 C27.9615299,207.050644 5,225.131699 5,246.2954 C5,273.80609 43.7990036,296.107912 91.66,296.107912 C101.530058,296.107912 111.014727,295.159458 119.853204,293.41246 C134.600217,323.772925 187.565804,346.245995 250.645263,346.245995 C298.284509,346.245995 340.155143,333.428115 364.150925,314.075213 C381.173463,320.740078 403.184871,324.758245 427.223158,324.758245 C481.201725,324.758245 524.96,304.497114 524.96,279.503741 C524.96,279.058475 524.946112,278.614711 524.918525,278.172537 L524.918525,278.172537 Z" id="Oval-18" fill="#FAFAFA" filter="url(#filter-1)" sketch:type="MSShapeGroup" transform="translate(314.500000, 176.622998) scale(-1, 1) translate(-314.500000, -176.622998) "></path>
            <text id="Self-Youth-Community" sketch:type="MSTextLayer" font-family="Open Sans" font-size="24" font-weight="normal" sketch:alignment="middle" fill="#2A2B2E">
                <tspan x="167.484375" y="159">Self Youth Community Inc. </tspan>
                <tspan x="216.333984" y="204">October - present </tspan>
                <tspan x="120.984375" y="249">Technical Director &amp; Web Designer </tspan>
            </text>
        </g>
    </g>
</svg>