<?xml version="1.0" encoding="UTF-8" standalone="no"?>
<svg width="1442px" height="482px" viewBox="0 0 1442 482" version="1.1" xmlns="http://www.w3.org/2000/svg" xmlns:xlink="http://www.w3.org/1999/xlink">
    <!-- Generator: Sketch 50.2 (55047) - http://www.bohemiancoding.com/sketch -->
    <title>cld3</title>
    <desc>Created with Sketch.</desc>
    <defs></defs>
    <g id="Page-1" stroke="none" stroke-width="1" fill="none" fill-rule="evenodd">
        <g id="cld3" fill="#FAFAFA" fill-rule="nonzero">
            <path d="M1332.01067,306.183521 C1332.03752,305.251058 1332.05101,304.316198 1332.05101,303.37904 C1332.05101,231.035976 1251.65377,172.390335 1152.47874,172.390335 C1149.96566,172.390335 1147.46463,172.427992 1144.97667,172.502575 C1117.28286,73.4034752 1017.11505,0 897.78802,0 C795.953681,0 708.073012,53.459819 667.283089,130.727292 C644.422843,118.985468 616.568557,112.093023 586.513407,112.093023 C546.117579,112.093023 509.697585,124.544147 484.035325,144.485785 C447.361476,129.016948 403.251151,119.994854 355.79431,119.994854 C228.371671,119.994854 125.075213,185.0382 125.075213,265.273235 C125.075213,278.890957 128.050756,292.071069 133.614778,304.569846 L106.750212,304.569846 C104.758354,304.569846 102.796001,304.698933 100.870778,304.949348 C44.2972558,309.115816 0,347.074316 0,393.284923 C0,439.494423 44.2951349,477.452212 100.866715,481.620199 C102.793185,481.870811 104.756892,482 106.750212,482 L1343.39185,482 C1395.03047,482 1442,448.238673 1442,406.591966 C1442,368.598936 1407.16145,337.168403 1361.84339,331.946002 C1356.20623,319.403811 1345.29947,309.836077 1332.01067,306.183521 Z" id="Rectangle-26"></path>
        </g>
    </g>
</svg>