<?xml version="1.0" encoding="UTF-8" standalone="no"?>
<svg width="1442px" height="479px" viewBox="0 0 1442 479" version="1.1" xmlns="http://www.w3.org/2000/svg" xmlns:xlink="http://www.w3.org/1999/xlink">
    <!-- Generator: Sketch 50.2 (55047) - http://www.bohemiancoding.com/sketch -->
    <title>cld4</title>
    <desc>Created with Sketch.</desc>
    <defs></defs>
    <g id="Page-1" stroke="none" stroke-width="1" fill="none" fill-rule="evenodd">
        <g id="cld4" fill="#FAFAFA" fill-rule="nonzero">
            <path d="M1442,404.533611 C1442,360.883174 1382.78374,324.665452 1305.16761,317.815469 C1314.41599,303.070063 1319.48009,287.073682 1319.48009,270.359943 C1319.48009,196.628382 1220.92878,136.857142 1099.35958,136.857142 C1079.23489,136.857142 1059.74098,138.495103 1041.2205,141.563206 C1008.23041,59.1302265 918.41425,0 812.787595,0 C711.910185,0 625.453471,53.9324732 589.145566,130.588598 C567.743512,120.846803 543.75846,115.389355 518.428326,115.389355 C441.925617,115.389355 377.692421,165.170889 359.833067,232.415281 C337.252219,219.581322 309.327226,211.994397 279.099185,211.994397 C203.978594,211.994397 143.081322,258.850243 143.081322,316.649858 C143.081322,318.50528 143.144075,320.349424 143.268037,322.181102 C53.3475695,311.353408 -12.4256294,378.510116 1.98515109,433.532534 C13.9956186,479.390214 63.1776877,478.999998 154.829754,478.999998 C154.829754,478.999998 1354.98546,478.999998 1365.35507,478.999998 C1431.60971,469.680854 1442,435.913434 1442,404.533611 Z" id="Oval-18" transform="translate(721.000000, 239.500027) scale(-1, 1) translate(-721.000000, -239.500027) "></path>
        </g>
    </g>
</svg>