<?xml version="1.0" encoding="UTF-8" standalone="no"?>
<svg width="79px" height="72px" viewBox="0 0 79 72" version="1.1" xmlns="http://www.w3.org/2000/svg" xmlns:xlink="http://www.w3.org/1999/xlink" xmlns:sketch="http://www.bohemiancoding.com/sketch/ns">
    <!-- Generator: Sketch 3.4.2 (15857) - http://www.bohemiancoding.com/sketch -->
    <title>Oval 52</title>
    <desc>Created with Sketch.</desc>
    <defs></defs>
    <g id="Page-1" stroke="none" stroke-width="1" fill="none" fill-rule="evenodd" sketch:type="MSPage">
        <g id="Desktop-HD" sketch:type="MSArtboardGroup" transform="translate(-836.000000, -6573.000000)" fill="#FFFFFF">
            <g id="skills" sketch:type="MSLayerGroup" transform="translate(143.000000, 6289.000000)">
                <g id="li" transform="translate(0.000000, 262.000000)" sketch:type="MSShapeGroup">
                    <g id="air-puff-copy-4" transform="translate(693.000000, 22.000000)">
                        <path d="M72.9500194,41.7215695 C76.2097548,39.299097 78.3554687,35.1773357 78.3554687,30.5 C78.3554687,23.0441559 72.9033114,17 66.1777344,17 C66.0260328,17 65.8749792,17.0030751 65.7246213,17.0091721 C64.4261075,7.41586906 55.7273674,0 45.1897786,0 C37.0768384,0 30.0538821,4.39578164 26.6589203,10.7967133 C24.6577319,9.64633055 22.4048758,9 20.0224609,9 C11.7275827,9 5.00325521,16.8350169 5.00325521,26.5 C5.00325521,29.6631575 5.72351354,32.6303031 6.98336074,35.1909252 C2.85583077,37.1919147 0,41.5036241 0,46.5 C0,53.4035594 5.45215739,59 12.1777344,59 C13.5252822,59 14.8217089,58.775332 16.0334028,58.3604971 C16.0112608,58.652651 16,58.9476397 16,59.2451059 C16,66.0078912 21.8202983,71.4902118 29,71.4902118 C35.0116639,71.4902118 40.0702574,67.6465868 41.557074,62.4259783 C45.1116265,65.2671231 49.8421895,67 55.0351563,67 C66.0772556,67 75.0286458,59.1649831 75.0286458,49.5 C75.0286458,46.7058821 74.2805147,44.0647075 72.9500194,41.7215695 L72.9500194,41.7215695 Z" id="Oval-52"></path>
                    </g>
                </g>
            </g>
        </g>
    </g>
</svg>