<?xml version="1.0" encoding="UTF-8" standalone="no"?>
<svg width="1507px" height="758px" viewBox="0 0 1507 758" version="1.1" xmlns="http://www.w3.org/2000/svg" xmlns:xlink="http://www.w3.org/1999/xlink" xmlns:sketch="http://www.bohemiancoding.com/sketch/ns">
    <!-- Generator: Sketch 3.4.2 (15857) - http://www.bohemiancoding.com/sketch -->
    <title>earth</title>
    <desc>Created with Sketch.</desc>
    <defs>
        <rect id="path-1" x="0" y="0" width="1507" height="750"></rect>
    </defs>
    <g id="Page-2" stroke="none" stroke-width="1" fill="none" fill-rule="evenodd" sketch:type="MSPage">
        <g id="earth" sketch:type="MSArtboardGroup">
            <g id="Oval-28-+-Fill-9-Mask" sketch:type="MSLayerGroup" transform="translate(0.000000, 8.000000)">
                <mask id="mask-2" sketch:name="Mask" fill="white">
                    <use xlink:href="#path-1"></use>
                </mask>
                <use id="Mask" sketch:type="MSShapeGroup" xlink:href="#path-1"></use>
                <path d="M1509,721.366462 C1494.40994,364.709191 1226.96255,58.3135479 860.900853,6.86693157 C835.168724,3.25051663 809.557759,0.979398084 784.139056,-1.99195256e-08 L726.072334,-2.59792188e-14 C368.686616,13.8055427 61.3955528,281.521798 9.86693157,648.16699 C5.05843157,682.381245 2.62830864,716.381291 2.4506227,750 L1509,750 L1509,721.366392 L1509,721.366462 Z" id="Oval-28" fill="#2B82AD" sketch:type="MSShapeGroup" mask="url(#mask-2)"></path>
                <path d="M1308.8075,380.435779 C1322.79576,386.98206 1333.30614,396.469781 1344.67578,404.608385 C1355.86589,412.619465 1366.86889,420.904153 1379.30391,426.913851 C1382.70115,428.556331 1386.6378,430.838729 1390.1074,428.110882 C1394.06638,424.994966 1391.95948,420.456124 1391.09151,416.495418 C1388.73922,405.756995 1381.6702,398.030404 1374.66606,389.994524 C1342.60308,353.199266 1314.07464,313.619995 1284.73993,274.682039 C1276.82432,264.174509 1268.91972,253.656276 1261.19987,243.003643 C1258.77731,239.662271 1256.90358,235.907326 1254.93356,232.258687 C1254.04414,230.607067 1252.94095,228.554748 1254.65318,226.967928 C1256.307,225.439597 1258.30176,226.612713 1260.02462,227.380723 C1268.85791,231.30892 1276.63277,237.030468 1284.24126,242.841221 C1303.05055,257.202312 1322.21448,271.202128 1340.00967,286.763797 C1354.51388,299.448022 1364.54076,316.337974 1375.28121,332.220052 C1403.48905,373.93601 1428.08024,417.707033 1448.06928,463.984015 C1506.04127,598.196711 1523.55867,736.625611 1498.81242,880.349445 C1479.68939,991.414294 1439.05569,1093.13376 1377.03559,1186.34969 C1374.41116,1190.29718 1371.37556,1193.97103 1368.46747,1197.72238 C1367.17261,1199.39493 1366.0135,1202.05739 1363.32053,1200.57136 C1360.86406,1199.21573 1361.83824,1196.51662 1362.32895,1194.47598 C1365.62262,1180.80429 1370.74998,1167.7978 1376.3305,1154.95615 C1377.46327,1152.3473 1379.35527,1149.63889 1379.28586,1147.00046 C1378.66317,1122.87445 1390.28786,1102.84532 1399.89097,1082.17684 C1405.25186,1070.64113 1410.80792,1059.22839 1414.01236,1046.81741 C1417.036,1035.09963 1417.08817,1023.49687 1412.67698,1011.9905 C1410.80047,1007.08998 1408.17844,1003.12015 1403.26819,1000.40928 C1393.78594,995.17387 1388.32352,986.634437 1385.78348,976.235203 C1381.85023,960.105932 1384.56228,943.805649 1383.95408,927.603535 C1381.62917,865.766154 1386.4465,803.699156 1376.58989,742.102787 C1373.29049,721.491103 1366.94633,701.700644 1358.03894,682.756747 C1356.57777,679.650514 1355.21759,675.419369 1351.22959,675.485464 C1346.47936,675.561746 1345.58519,680.29337 1344.95904,683.89717 C1341.69404,702.740683 1338.8299,721.660663 1335.65679,740.521732 C1334.11999,749.638711 1332.34011,758.765257 1327.83284,766.945275 C1322.83477,776.020751 1317.21566,777.487155 1309.49689,770.619072 C1304.89357,766.522014 1301.3368,766.48979 1295.95632,768.212773 C1251.31657,782.507296 1208.31144,776.939777 1168.146,752.897462 C1153.58042,744.177454 1137.69705,742.056194 1122.44304,736.844673 C1109.44864,732.401749 1096.36155,728.231205 1083.48583,723.464976 C1079.58397,722.019525 1073.65648,721.435032 1073.12097,716.273843 C1072.03985,705.833693 1078.02467,695.679511 1085.54968,693.247061 C1096.74663,689.626856 1106.80992,693.327391 1114.84309,700.609539 C1133.66525,717.663729 1156.72409,721.326562 1180.25472,723.859931 C1203.03389,726.313396 1226.10192,725.790938 1248.53357,731.838367 C1255.53968,733.724557 1261.66973,736.222689 1265.73682,742.79975 C1268.80081,747.757806 1273.4159,751.351727 1278.3258,754.460687 C1288.44186,760.872475 1296.32573,758.818184 1302.04957,748.187978 C1305.89027,741.062392 1306.49535,733.021231 1308.29014,725.274627 C1318.89248,679.472524 1315.6126,633.841016 1308.83909,587.54622 C1304.32444,556.699134 1296.22555,527.747675 1282.12015,500.197702 C1274.37279,485.06435 1266.38698,481.273895 1249.79598,483.685817 C1245.73177,484.277083 1241.55157,484.208324 1237.42244,484.267441 C1226.34127,484.432148 1225.99953,484.880141 1229.79963,495.822295 C1231.68719,501.259391 1233.47533,506.744872 1235.67616,512.056804 C1239.00798,520.096904 1236.65228,526.551924 1230.48922,531.671101 C1213.53465,545.756489 1193.7128,551.314297 1171.89261,548.98206 C1158.7838,547.578905 1151.50961,539.377622 1150.87839,528.041498 C1150.55212,522.158441 1151.84653,518.998615 1158.68781,519.694985 C1165.63965,520.402068 1172.69396,520.419536 1179.68146,520.202841 C1185.38092,520.026082 1191.14735,519.514345 1196.70766,518.352647 C1215.80765,514.361086 1222.852,503.490472 1218.63412,484.282172 C1217.5938,479.542368 1216.90798,477.180367 1223.16986,476.174731 C1234.36567,474.378146 1241.32771,466.34951 1246.31191,456.71789 C1254.98049,439.965163 1258.36503,421.795877 1257.72653,403.070506 C1257.47052,395.550442 1260.33222,394.049799 1266.61961,393.422776 C1278.0235,392.281913 1289.57302,394.288662 1300.88197,391.99694 C1310.0099,390.148022 1309.99642,390.085849 1308.8075,380.435779 M1189.31429,1373.70099 C1125.47964,1418.03294 1057.13341,1453.38865 982.756679,1476.85728 C893.366023,1505.06475 801.79401,1515.83968 707.956501,1509.17796 C576.663289,1499.85303 455.243598,1458.69517 342.291999,1390.81402 C297.374606,1363.81858 258.218594,1329.45334 221.692089,1291.89385 C190.30069,1259.61477 162.188828,1224.64979 136.658937,1187.7054 C86.0028012,1114.39972 47.678257,1035.20594 25.0191663,948.921015 C18.5100353,924.12896 17.167728,899.098591 23.609076,874.076163 C26.276976,863.71143 24.8988016,853.07319 24.3255362,842.60477 C23.4711984,827.002831 28.4017542,814.646148 41.5834189,806.077712 C44.1163691,804.431803 46.4917514,800.659932 49.7759412,802.908386 C52.6023823,804.843558 51.4698197,808.759053 51.1762192,811.912147 C50.7911557,816.038311 50.2106644,820.155022 50.0619386,824.291155 C49.965042,826.977762 50.7906494,829.518934 54.287438,829.408296 C66.0784376,829.034186 74.5741121,813.352062 68.0952415,803.394161 C62.662986,795.046585 57.0984004,786.839714 54.5091196,777.089999 C53.4678852,773.168234 52.4688685,769.267699 59.138621,770.324787 C62.5881205,770.869426 66.2805502,769.367254 66.0460217,765.551267 C65.2106283,751.897656 78.6513452,753.260466 85.0019867,747.336894 C88.0793969,744.468177 89.4843231,749.04655 88.7665906,751.981583 C87.1803603,758.473994 85.290006,764.891786 83.3693095,771.291454 C81.4340692,777.738247 80.1126477,784.313205 80.1484512,791.044428 C80.2114155,802.999243 89.9104013,812.466695 101.555048,812.347533 C106.022607,812.301017 104.693047,809.059445 104.199067,806.885605 C102.496014,799.409563 100.489157,791.998502 98.5647672,784.573518 C94.724249,769.753491 93.22357,755.349868 100.10327,740.702228 C105.211966,729.821896 104.428358,717.619298 102.553301,705.812408 C101.200045,697.301235 99.6756126,688.75269 97.3286224,680.469561 C90.1709928,655.218637 88.7057325,630.157956 97.2199316,605.09008 C98.3344523,601.805412 98.7346973,598.256107 99.344074,594.807193 C99.6120943,593.283964 99.5753421,591.70107 99.7808288,588.573386 C91.6623946,597.003273 89.5854557,607.949797 81.5409958,615.566866 C78.109817,609.501558 79.6288239,604.248457 81.5649884,599.447722 C88.3783278,582.554758 87.7553003,564.393975 90.3111906,546.788844 C91.1454136,541.031885 87.7578975,536.700983 82.308894,535.160397 C76.8913172,533.629884 75.3084685,538.636944 73.6366137,542.17523 C65.4290408,559.561869 62.6685577,578.685832 57.2238501,596.958518 C54.1383776,607.310011 51.885977,617.814922 44.0943652,626.140783 C41.7424685,628.65326 41.7167912,633.275324 40.3393433,636.818398 C39.0240578,640.194076 39.3363872,644.527679 34.4977561,647.055117 C37.916,624.214318 43.2129425,602.221805 43.9432934,580.027352 C44.6212623,559.408217 48.6065767,540.277481 56.3286957,521.667768 C61.1983434,509.935638 66.5703921,498.408398 74.9544969,488.645115 C76.6408734,486.682365 78.1931447,484.336047 81.190285,485.754408 C83.5569896,486.873885 83.3020667,489.395068 83.5262729,491.634767 C84.3695468,500.048026 80.5319624,507.870473 80.8110983,516.202518 C80.7767265,516.650355 79.2417748,517.336867 81.0287347,517.497209 C80.8869429,517.059157 80.7463099,516.622643 80.6045181,516.184591 C87.8640016,511.261489 89.8851346,502.828355 93.8447362,495.753011 C102.491718,480.306473 108.88859,463.493467 121.539895,450.526674 C124.153146,447.848596 126.605935,445.134716 132.453759,443.582761 C123.675232,462.916202 121.059762,482.646975 111.227263,499.816269 C109.198372,503.358384 106.992201,504.697771 103.041959,504.605211 C97.9966321,504.489164 94.9269087,507.067583 96.4980258,512.420047 C100.408681,525.735764 99.3449842,538.672186 96.2476774,551.981324 C94.7770433,558.295007 93.2840599,568.526628 100.654501,570.659064 C108.705824,572.989683 111.917257,563.203902 115.06404,556.909836 C119.072174,548.896182 121.180358,540.202155 120.662759,531.044393 C120.333175,525.226523 120.876999,519.587131 123.57812,514.340157 C124.175269,514.389263 124.769813,514.447565 125.365154,514.510088 C127.175862,520.537934 123.173937,527.085806 128.170695,534.883926 C147.483267,484.1987 158.53669,433.17187 164.862052,380.545808 C160.293908,380.193141 158.692998,382.971526 156.382054,384.307888 C153.890333,385.749133 151.501864,387.194547 147.290492,386.606789 C151.755025,379.372769 157.139903,374.473513 164.971666,372.897299 C170.649492,371.75554 172.336865,376.620164 174.980613,381.615211 C176.27201,377.919986 177.3138,375.165104 178.199978,372.35871 C180.696646,364.461739 182.496495,356.677567 194.315453,362.220832 C200.630304,365.182467 205.833118,359.089499 212.416333,354.562682 C208.107198,367.041801 204.258321,377.645477 200.834502,388.389362 C199.596582,392.275752 198.233507,396.685621 198.902193,400.533695 C201.159664,413.537629 196.603326,424.606906 191.759184,436.078711 C187.709096,445.681523 184.928652,455.928536 182.482641,466.116419 C177.762872,485.781318 170.752765,504.21615 159.555217,521.206141 C148.818246,537.494636 149.75859,556.494048 151.426447,575.000694 C152.914899,591.523209 155.265957,608.162421 165.273944,622.322822 C171.976236,631.808569 178.281329,631.394839 184.206246,621.452164 C188.465017,614.305687 190.7535,606.331722 193.392821,598.491206 C201.916525,573.170238 210.291484,547.746774 226.081258,525.789379 C234.228048,514.461729 244.49622,505.942923 258.078668,501.578748 C268.5558,498.211636 277.290518,492.000856 284.172554,483.318832 C290.314065,475.570959 289.922498,472.505006 281.717839,466.475637 C288.343123,462.295655 291.235611,455.648313 293.826973,448.721563 C300.49733,430.892354 304.400729,411.994531 313.941521,395.266872 C316.536422,390.717172 313.295004,385.950683 313.79021,381.189388 C315.079559,368.758021 318.141005,356.739302 320.975948,344.647749 C322.427637,338.454429 323.652822,332.188275 324.601769,325.893996 C325.15448,322.237033 326.871169,317.72706 323.517587,315.010107 C319.566549,311.81029 315.802175,315.519753 311.281787,317.773623 C314.563728,309.63451 309.38824,308.953504 304.399132,308.643195 C293.828404,307.979624 283.52312,310.091274 273.169581,311.69921 C269.500126,312.270277 265.983934,314.117034 262.087243,313.190882 C263.281465,295.300225 260.143405,292.768058 242.160056,297.048954 C237.224913,298.224181 232.327746,299.563677 227.377528,300.668289 C222.626129,301.726755 218.26937,301.863373 219.301999,293.74114 L206.119462,303.674894 C211.496592,293.590462 216.471914,285.819638 213.498104,275.1421 C210.111467,277.426486 207.196591,279.514505 204.161697,281.408459 C198.99854,284.631313 193.406903,286.238557 188.233394,281.871958 C183.253825,277.667832 184.536388,271.898518 186.330484,266.722627 C190.356258,255.120078 199.852521,247.727847 208.15203,239.576213 C234.129632,214.067064 260.528156,189.002624 288.697362,165.892567 C309.922189,150.426535 330.402388,133.937553 353.055202,120.455092 C383.476726,102.345718 417.188113,95.9342928 451.864932,92.7904907 C454.256047,92.5727233 457.549838,92.2654505 458.67504,95.0365522 C460.06452,98.4620226 456.720856,99.8797994 454.667278,101.719019 C450.895377,105.099017 445.982189,105.310154 441.418637,106.48505 C435.406015,108.033404 428.857014,108.249983 423.93164,113.195983 C439.587976,118.574485 464.091463,109.37308 473.209907,94.7261674 C475.563421,90.9442542 477.691387,87.1635284 481.234945,84.2618041 C492.421316,75.0920736 497.114018,75.5341196 505.650546,87.5773443 C508.402236,91.4567065 510.965973,92.9894863 515.918499,91.8373259 C520.372238,90.7982224 526.494268,90.2933896 528.473836,95.6659688 C530.204255,100.363135 525.302824,103.46833 522.061338,106.328078 C514.713772,112.807591 506.028448,117.698464 499.547591,125.21743 C498.351071,126.606107 496.478612,127.89173 497.211173,130.069027 C498.090597,132.697432 500.651273,132.752127 502.791262,132.786285 C528.715577,133.216908 551.608501,146.041426 576.278352,151.576436 C581.21057,152.684276 579.306418,155.452474 577.389062,157.750821 C574.358877,161.384424 570.804453,164.610185 568.028743,168.42333 C562.388506,176.181647 564.196004,181.401796 573.49038,183.955427 C583.766286,186.777245 594.290833,186.120602 604.80042,185.950209 C613.905249,185.804033 622.911802,183.142434 632.090073,185.168736 L632.118204,185.000463 C617.645462,196.36938 602.401141,206.641626 585.942706,214.853522 C567.120872,224.243602 550.201728,220.086731 536.606575,203.554171 C532.883775,199.025055 528.717598,195.049454 523.378769,192.680827 C516.760974,189.747359 511.783612,193.314829 512.588262,200.54443 C512.967517,203.945153 513.95939,207.614787 515.761254,210.483575 C524.682353,224.691464 539.16795,232.51455 553.540513,238.580762 C566.088121,243.876332 577.12901,234.285796 587.638537,227.950367 C596.85012,222.397712 604.29203,214.183474 614.323724,209.823528 C622.562355,206.240919 626.180268,208.141453 627.613152,216.913292 C628.12529,220.047517 628.060511,223.276521 628.178912,226.463931 C628.411781,232.725985 627.9345,238.023495 619.127459,236.689109 C615.854569,236.192214 611.851393,237.111201 610.390976,241.047111 C609.049601,244.657034 611.783708,247.206685 613.89331,249.433695 C620.272162,256.15899 627.268596,262.315228 633.37662,269.266305 C639.164532,275.85584 638.074241,278.321777 629.702717,279.706786 C621.607633,281.047435 614.018768,281.114529 607.979061,273.656279 C599.47399,263.154128 597.557018,263.137567 587.291185,271.415916 C585.820128,272.601591 584.458724,273.926454 580.90125,277.103882 C599.400436,275.301026 604.220678,286.954839 608.289264,299.635579 C609.340428,302.915752 611.431649,305.877521 613.111984,308.948796 C613.56767,309.784421 614.89652,310.668511 614.748348,311.231034 C610.959984,325.543133 623.86897,323.217472 630.990655,326.547594 C615.707749,343.76866 597.079827,343.515448 576.033487,326.169871 C581.39103,322.132672 586.752805,318.246593 591.930836,314.132493 C594.940067,311.739501 598.249498,308.669422 596.991956,304.609274 C595.656815,300.303808 591.044826,300.459159 587.232155,300.359375 C568.409699,299.866985 550.704449,304.415709 533.825465,312.230837 C528.618549,314.642795 523.632407,316.734079 517.626302,316.905628 C505.816687,317.245545 497.646212,324.388563 491.3008,333.498029 C479.809972,349.988114 473.374645,368.496142 471.888227,388.637098 C471.601154,392.532702 469.819783,397.624261 476.815039,399.195548 C479.735921,399.851613 479.85178,404.386311 480.57996,407.427657 C484.146792,422.302025 480.900113,436.659214 477.440464,450.914082 C473.617143,466.682282 467.820556,481.92903 465.94103,498.214367 C463.262493,521.394672 475.734247,542.383133 497.407317,550.979262 C504.886688,553.945817 509.02815,549.515796 512.095834,544.11315 C515.371682,538.341468 517.542399,531.941459 520.493604,525.963544 C524.879231,517.084364 527.56049,516.568393 535.795534,521.784038 C538.993513,523.81054 542.690205,525.024833 546.143839,526.6441 C566.284382,536.091279 569.493071,551.910623 554.426091,567.447597 C555.528468,569.445071 557.706305,569.036006 559.398007,569.680421 C562.128031,570.719003 564.921249,571.673798 565.723403,574.936673 C566.292282,577.254191 564.740362,578.512856 562.943972,579.304756 C559.699435,580.737044 556.532202,579.962825 554.057439,577.678256 C548.415211,572.471388 545.291962,565.985975 544.78494,558.240357 C544.49431,553.796371 544.093686,549.317129 543.19855,544.959778 C542.565574,541.8708 541.332218,538.513334 537.499114,537.997368 C533.440962,537.448457 530.8898,540.294332 529.151424,543.241403 C522.55447,554.421046 521.755764,566.231937 527.773844,577.947539 C530.989363,584.204291 535.221804,590.31438 541.777873,593.422149 C549.221447,596.948523 548.852256,602.18387 546.873171,608.449118 C542.253426,623.071859 535.105292,636.578817 528.96414,650.53008 C526.292734,656.600944 524.003816,662.844096 521.311987,669.583748 C512.196111,649.145377 493.708221,640.581803 475.904945,631.367315 C466.542315,626.521566 456.833354,622.320154 447.119493,618.226112 C442.47122,616.267783 440.027119,614.140939 440.547246,608.403674 C441.198278,601.258557 439.693152,594.310875 432.361347,590.309685 C425.096743,586.347063 418.843488,588.120146 413.241037,593.407584 C410.792001,595.7184 408.077647,595.516704 405.239106,594.584006 C397.300318,591.975702 396.285956,596.048054 397.724998,602.411426 C398.499382,605.839891 399.563453,609.20678 400.298522,612.643172 C401.276754,617.215177 403.133732,619.106942 408.282313,617.50325 C416.021222,615.09527 419.565892,619.233005 420.080984,626.786891 C420.276793,629.653165 420.508302,632.538346 421.01538,635.365358 C422.718931,644.87596 424.830321,645.953958 434.509294,641.464392 C434.480127,651.89251 438.255765,658.402279 449.855377,658.637725 C455.756697,658.75731 458.114373,664.476662 457.731202,670.028749 C457.383837,675.071641 456.116679,680.067451 454.985275,685.018829 C452.335661,696.606657 453.154762,697.817004 464.693987,698.054555 C463.085824,704.233178 461.390536,710.318325 459.959547,716.469525 C459.47558,718.541252 458.684841,721.034621 460.871586,722.709232 C463.061808,724.388457 465.250638,723.2285 466.943936,721.812668 C478.05983,712.52727 492.034804,706.820905 500.867909,694.667464 C501.783663,693.405973 502.979577,692.234748 504.286632,691.394475 C508.050623,688.965574 511.51333,683.084427 516.487541,686.942987 C522.157912,691.342643 518.157273,697.120416 515.627522,701.592089 C511.178617,709.460497 504.143712,714.602548 496.450273,719.421079 C489.566454,723.735605 478.025494,726.968878 479.357497,736.337526 C480.531197,744.569301 492.216509,743.97586 499.40109,746.839062 C509.482908,750.85836 519.810153,754.039316 528.280332,761.474369 C547.458978,778.305739 543.182027,806.507244 519.713132,814.883218 C506.302159,819.6679 492.359347,823.016122 479.024367,827.987056 C466.477691,832.662932 462.934406,842.052615 471.05383,852.862249 C479.383002,863.950229 482.074238,876.492279 485.474476,889.013613 C491.615323,911.621497 501.998864,931.907497 516.828968,950.082057 C519.99468,953.960458 522.550465,955.897056 526.763955,952.07821 C527.444232,951.459498 528.403404,951.112836 529.279523,950.754015 C535.783915,948.090069 542.378741,940.921623 549.346471,946.581113 C555.633605,951.685369 552.870926,960.330104 551.991306,967.4787 C549.965991,983.943818 547.176836,1000.30943 545.403646,1016.79915 C544.167178,1028.31063 544.78433,1039.85265 551.988373,1049.90303 C553.736059,1052.34249 554.158352,1054.146 551.63161,1056.39482 C529.938103,1075.70524 526.733188,1101.74871 526.292394,1128.79061 C525.985858,1147.6157 526.666965,1166.51149 523.605749,1185.16046 C522.929755,1189.28645 524.7323,1191.94737 527.473465,1194.32293 C543.532071,1208.23484 554.045934,1226.05256 558.96547,1246.11607 C566.294881,1276.01386 586.83662,1293.36356 611.663334,1307.33722 C636.795714,1321.4856 664.674592,1327.17021 692.185545,1334.46057 C742.444923,1347.77906 787.667504,1332.57519 832.576308,1314.08279 C851.10787,1306.45212 868.140246,1296.038 883.910731,1283.61401 C888.666128,1279.86902 893.051562,1275.9399 896.448534,1270.80026 C902.547158,1261.56574 911.634532,1256.55996 922.294333,1254.51389 C931.020661,1252.8374 939.877533,1251.82444 948.64358,1250.33985 C961.059233,1248.23886 972.468277,1244.36239 981.181203,1234.35856 C985.506973,1229.39182 991.120182,1225.68758 997.511434,1223.17399 C1022.21321,1213.46391 1045.51095,1229.33717 1044.12709,1255.84561 C1043.71342,1263.77387 1045.54089,1264.76926 1052.69506,1263.86277 C1067.31657,1262.00671 1081.17033,1265.60676 1094.11156,1272.75638 C1098.86518,1275.38275 1103.48577,1278.25644 1108.16332,1281.03176 C1121.20163,1288.76885 1134.55739,1295.5386 1150.86362,1294.90604 C1149.15256,1299.30328 1147.56662,1303.02516 1146.24252,1306.84147 C1139.48526,1326.32988 1146.77621,1339.25384 1167.11425,1343.70597 C1184.23742,1347.45352 1201.33492,1346.16924 1218.40038,1343.66259 C1221.49806,1343.20895 1224.57559,1342.62101 1228.81933,1343.9318 L1189.31429,1373.70099 L1189.31429,1373.70099 L1189.31429,1373.70099 L1189.31429,1373.70099 L1189.31429,1373.70099 Z M869.236503,724.200435 C866.627105,719.001085 864.245295,714.556082 862.138532,709.985792 C857.804179,700.596302 859.922885,696.509116 869.816443,694.300254 C872.613458,693.675355 877.313803,695.348515 877.587194,691.11844 C877.842319,687.145646 873.472634,685.715171 870.18232,684.64793 C860.990527,681.667394 851.376684,680.805957 841.874919,680.248245 C832.562861,679.701885 830.205726,675.874808 833.516819,667.600408 C834.10221,666.134583 834.291068,664.509465 834.77899,662.996536 C841.098371,643.341417 849.79776,639.917926 867.47064,650.556757 C876.757616,656.146668 886.160187,661.557851 894.055597,669.315115 C900.534873,675.680229 906.673924,676.235493 914.81733,669.841012 C942.103889,648.415956 959.160354,619.924846 972.83532,588.863197 C974.835039,584.320774 976.369725,584.437346 979.412579,587.706708 C998.773,608.502315 1014.64333,631.650624 1026.8984,657.279706 C1029.2483,662.194798 1029.1864,665.645867 1024.06548,669.335982 C1015.93326,675.201245 1011.22591,684.004598 1007.6084,693.336897 C1004.39267,701.633466 1001.29867,709.999847 997.575756,718.066198 C993.051228,727.864986 986.195974,735.465962 975.680792,739.348782 C965.402724,743.144544 957.387267,750.60715 948.551815,756.744351 C939.817501,762.810162 930.804164,766.617305 919.273084,765.163264 C900.86195,762.844363 888.610983,778.57876 893.901952,796.503451 C896.163369,804.154267 899.44407,811.519211 901.618097,819.19007 C904.048416,827.767243 902.214972,833.833534 893.102848,838.556579 C877.708815,846.53299 861.614629,847.690502 844.958985,847.043282 C827.509829,846.36473 810.938438,847.657613 796.100207,858.778745 C788.567611,864.421208 778.773394,866.622722 768.927838,866.051624 C759.777613,865.520746 757.165737,861.282864 760.299497,852.621305 C764.080417,842.177335 761.377517,833.058137 753.048916,828.151688 C746.390583,824.231298 737.563756,825.913593 731.749035,835.129477 C725.048275,845.741179 714.174527,847.509659 704.358875,852.121508 C682.954793,862.174767 667.529967,879.729417 650.949873,895.811073 C635.080089,911.203163 620.729149,928.512771 599.881784,937.789676 C588.317042,942.933553 579.955906,942.405996 567.854237,936.000437 C573.4138,930.605475 579.527285,926.290372 584.678493,920.986132 C596.406581,908.910329 602.848403,894.440757 606.044286,878.168886 C606.657713,875.044824 607.401642,872.037007 604.899015,869.117627 C595.471377,858.112383 595.203842,845.019395 597.053247,831.847735 C598.869684,818.910682 601.592103,806.113093 603.913376,793.251309 C605.168393,786.297221 605.090256,779.332682 603.367534,772.327151 C605.870993,770.575679 607.818955,772.319318 609.785459,772.708434 C620.24932,774.773798 628.425799,771.753991 634.480589,762.733328 C639.846789,754.737878 642.334315,745.367404 647.117591,737.136121 C652.699153,727.531747 659.505214,724.62601 668.316334,730.919286 C682.214211,740.84406 697.517479,740.974523 713.090403,741.171823 C727.736953,741.360756 742.427008,740.80082 756.8662,744.171889 C770.074852,747.257474 775.460978,755.917084 772.683169,768.030682 C771.231076,774.36897 766.41003,776.157427 761.602166,778.659269 C756.790103,781.161864 748.987714,782.976337 750.853971,789.757975 C752.647551,796.288174 760.353927,794.811268 765.939716,794.667123 C770.699131,794.54293 775.428129,793.701462 779.477299,790.77798 C781.867011,789.049535 785.12118,786.59252 783.845277,784.057944 C779.416484,775.257998 786.009692,771.082898 790.045127,765.503133 C794.95093,758.725009 793.444507,750.42811 786.157547,743.092384 C781.654056,738.55844 776.474498,734.693078 772.052667,730.090365 C765.811652,723.589107 766.432765,721.898657 774.813082,719.626985 C776.965106,719.044485 780.799124,720.121541 780.564585,716.599711 C780.349724,713.347558 776.889306,712.529052 773.969914,712.06475 C758.751678,709.63998 743.430081,711.531743 728.180641,710.504792 C714.173139,709.557031 700.237059,708.403552 687.40136,701.45409 C680.585012,697.763683 676.127555,692.117305 672.216195,685.80384 C669.690084,681.730382 670.975983,679.444948 675.595627,678.502644 C684.061207,676.774308 692.117272,678.927757 700.014481,681.449251 C717.200867,686.938174 734.315216,690.041388 752.633348,688.40631 C766.966504,687.129193 780.769539,693.306315 794.128924,698.720719 C810.417917,705.324689 826.494004,712.474866 842.781116,719.082665 C850.974347,722.408202 859.407861,725.217537 869.236503,724.200435 M631.550235,411.42624 C617.553719,422.484516 615.29801,437.587403 611.537064,452.476783 C618.661324,450.818891 624.05752,454.668079 629.654981,457.702561 C633.153565,459.596572 632.736587,462.418292 630.510439,464.828777 C628.162604,467.371948 625.33918,469.470618 622.756846,471.797493 C618.721582,475.428993 617.945035,479.997236 622.303812,483.273159 C630.060014,489.102798 632.204325,498.018458 636.130707,505.873326 C640.710328,515.044238 638.800359,520.461753 629.485716,524.16322 C624.669837,526.07557 623.101735,528.89433 621.496337,533.409649 C615.434973,550.449633 602.508133,561.557777 587.51514,570.471268 C584.919826,572.012275 581.407908,573.178303 578.488846,570.835536 C575.506707,568.443857 576.52901,564.951409 577.083582,561.878931 C577.467687,559.747436 577.989301,557.30497 579.312931,555.743355 C588.051862,545.445065 588.628232,533.063932 588.048153,520.486145 C587.176945,501.774595 581.96384,483.981703 575.243671,466.577037 C572.955099,460.648892 569.743725,457.930865 562.287859,458.977892 C546.843011,461.145772 540.238379,454.342275 539.649233,438.231884 C539.175522,425.320783 541.563412,412.126705 533.493839,400.105318 C530.39618,395.488483 536.371475,393.071343 538.810327,390.187136 C542.556086,385.753916 546.598623,378.478644 552.581518,380.882721 C557.604146,382.901323 554.658521,390.632696 554.669107,395.888065 C554.6815,403.543489 554.189078,411.224892 554.736404,418.843697 C555.218602,425.607431 556.802518,433.298624 563.40139,436.108922 C571.86128,439.706086 579.429508,443.087895 585.641572,450.686302 C589.7428,455.701792 595.132962,450.44895 598.049656,446.329447 C604.636361,437.030922 610.580648,427.268945 617.012016,417.856013 C620.037545,413.425446 623.568761,409.327492 631.550235,411.42624 M1063.14334,448.988402 C1060.75569,450.539286 1058.49502,452.344085 1055.95866,453.599563 C1044.0366,459.49973 1042.01535,458.705827 1035.31247,446.780525 C1032.02521,440.934671 1028.53414,435.182119 1024.823,429.593 C1020.59506,423.226353 1014.70346,420.073562 1006.88766,421.095262 C997.449476,422.326863 988.004269,423.539648 978.532579,424.492707 C955.604957,426.802043 938.446895,416.539575 925.772164,398.213984 C917.27005,385.92542 922.199432,360.019459 933.788066,350.712964 C939.069828,346.467654 942.17257,349.769042 944.147301,354.173608 C947.536655,361.746003 950.227999,369.622568 953.330866,377.324048 C956.244653,384.553189 960.188259,388.568723 969.297725,386.360008 C982.297408,383.208928 995.148895,386.725196 1007.66486,390.998208 C1023.53524,396.420357 1038.81113,402.72689 1056.42519,402.536159 C1074.58933,402.338389 1082.87529,419.040534 1074.67299,435.3334 C1071.92724,440.790013 1068.29711,445.54116 1063.14334,448.988402 M633.529665,185.740771 C633.789296,185.648801 634.04544,185.501592 634.307262,185.49477 C634.442951,185.491374 634.586731,185.742276 634.728459,185.876582 C634.337731,185.775603 633.947003,185.674623 633.556275,185.573644 C633.555116,185.572106 633.529665,185.740771 633.529665,185.740771 M1320.49987,1008.62996 C1326.41965,1017.72889 1320.75835,1045.2352 1312.16311,1051.88096 C1309.54972,1053.90092 1307.98027,1053.04865 1307.07771,1050.59198 C1304.11517,1042.54848 1299.69119,1034.96008 1299.04385,1026.17736 C1298.34131,1016.63817 1303.76818,1010.69703 1311.10741,1006.24668 C1314.82271,1003.99672 1318.47508,1004.82007 1320.49987,1008.62996 M866.149071,541.480096 C861.292325,519.409074 867.121092,506.387596 888.024592,494.787526 C902.115045,486.966439 917.371068,482.782948 933.835058,485.877153 C949.665028,488.851183 956.78809,502.555063 950.436211,517.087055 C949.374657,519.512049 947.873417,520.404619 945.53867,520.792083 C928.803012,523.578233 917.035875,533.824534 907.16265,546.682197 C896.181613,560.979832 885.695631,575.668723 874.496468,589.790768 C867.816973,598.216491 859.061055,603.813958 847.788382,604.376136 C842.023634,604.66237 838.590316,603.247199 837.540333,596.277213 C834.604577,576.809203 828.192477,558.608202 815.015278,543.221794 C812.147269,539.871308 811.421184,535.080364 810.844397,530.610906 C810.455807,527.583699 811.372741,525.390648 814.887114,525.920157 C820.609166,526.782418 824.358071,523.542713 828.427387,520.358121 C836.725652,513.868646 839.957398,514.630418 845.156313,524.487146 C849.613704,532.932815 854.318661,540.716951 866.149071,541.480096 M435.214308,662.761254 C438.422726,667.610475 438.517269,673.043684 438.045665,678.48158 C436.695215,694.074081 430.993154,708.101934 422.759982,721.155898 C421.053778,723.864141 418.695969,727.191189 415.44732,726.27097 C411.682597,725.206796 412.394568,720.692036 412.888083,717.880153 C414.75236,707.265066 410.487282,698.476772 405.174535,689.961986 C401.018874,683.302182 402.367448,677.762808 406.387085,671.42823 C411.061643,664.064878 413.789451,655.212546 425.383852,657.535075 C429.261034,658.311976 432.858247,659.220284 435.214308,662.761254 M679.024522,804.386789 C673.225664,790.82066 665.933096,773.304839 662.696246,754.398858 C662.214514,751.586502 661.607416,747.595575 664.274216,746.497378 C668.075097,744.930359 669.846438,749.333884 670.959563,751.829581 C678.222618,768.104246 690.343964,779.951209 703.920653,790.952243 C709.328617,795.33264 712.906255,801.994024 709.375155,809.751882 C703.269225,823.167869 692.444266,822.454768 679.024522,804.386789 M1435.87628,1050.59394 C1430.98091,1038.0275 1431.79433,1024.91078 1432.56319,1012.01329 C1434.31529,982.608955 1442.13213,954.382475 1449.5101,926.108169 C1450.32351,922.990124 1452.12395,920.403761 1454.53101,918.201727 C1459.65715,913.5095 1462.93113,914.738532 1464.44821,921.354127 C1466.76032,931.447727 1465.94136,941.634357 1465.47212,951.810614 C1464.01686,983.452965 1454.79206,1013.01528 1442.40768,1041.70599 C1440.94042,1045.10457 1439.48785,1048.81998 1435.69222,1050.5711 L1435.87628,1050.59394 L1435.87628,1050.59394 L1435.87628,1050.59394 L1435.87628,1050.59394 L1435.87628,1050.59394 Z M316.949338,563.11883 C309.355175,568.31583 301.343739,570.779688 292.42309,569.781662 C290.058448,569.518968 286.313797,569.563223 287.722023,565.700395 C292.008864,553.944518 289.437084,541.6717 290.642901,529.708337 C291.136704,524.81549 291.768737,519.606307 298.213971,525.91992 C299.939778,527.609146 301.663588,525.98708 303.411424,525.342677 C306.953217,524.035995 310.519663,522.556426 314.215899,521.938656 C325.04424,520.132062 331.395843,526.055718 330.597786,537.16209 C329.82601,547.911109 324.572206,556.349885 316.949338,563.11883 M1434.83509,1050.96189 C1434.9245,1051.25136 1435.01775,1051.54275 1435.10716,1051.83221 C1435.07821,1051.55023 1435.04926,1051.26825 1435.01764,1050.98588 C1435.01916,1050.98473 1434.83509,1050.96189 1434.83509,1050.96189 M425.967044,293.206186 C412.517229,307.862087 412.517229,307.862087 424.20704,324.940744 C408.034131,320.141981 394.964689,313.467511 384.282579,303.033865 C379.520498,298.381344 384.200933,295.223276 388.894188,295.53953 C395.053555,295.954108 395.924902,293.207112 396.516238,287.975552 C397.701876,277.500554 403.333213,272.880912 411.061147,274.77289 C414.778411,275.682354 417.481942,277.789711 418.303466,281.578068 C420.061749,289.6683 419.965959,289.68985 425.967044,293.206186 M124.544291,514.783549 C124.652052,513.152033 123.845294,511.069224 126.517463,510.711999 C126.454258,512.124288 126.389172,513.540406 126.328646,514.953087 C125.735984,514.890956 125.139919,514.8338 124.544291,514.783549 M81.7543555,517.520923 C81.8961473,517.958975 82.0367802,518.395489 82.178572,518.833541 C80.3916121,518.673199 81.9265639,517.986687 81.9612972,517.536166 L81.7543555,517.520923 L81.7543555,517.520923 L81.7543555,517.520923 Z" id="Fill-9" fill="#B8E986" sketch:type="MSShapeGroup" mask="url(#mask-2)"></path>
            </g>
        </g>
    </g>
</svg>