<?xml version="1.0" encoding="UTF-8" standalone="no"?>
<svg width="1508px" height="750px" viewBox="0 0 1508 750" version="1.1" xmlns="http://www.w3.org/2000/svg" xmlns:xlink="http://www.w3.org/1999/xlink">
    <!-- Generator: Sketch 50.2 (55047) - http://www.bohemiancoding.com/sketch -->
    <title>earth</title>
    <desc>Created with Sketch.</desc>
    <defs></defs>
    <g id="Page-1" stroke="none" stroke-width="1" fill="none" fill-rule="evenodd">
        <g id="earth" fill-rule="nonzero">
            <path d="M1507,721.366462 C1492.40994,364.709191 1224.96255,58.3135479 858.900853,6.86693157 C833.168724,3.25051663 807.557759,0.979398084 782.139056,-1.99195256e-08 L724.072334,-2.59792188e-14 C366.686616,13.8055427 59.3955528,281.521798 7.86693157,648.16699 C3.05843157,682.381245 0.62830864,716.381291 0.4506227,750 L1507,750 L1507,721.366392 L1507,721.366462 Z" id="Oval-28" fill="#2B82AD"></path>
            <path d="M94.7980759,750 C95.5609453,746.907523 96.643439,743.810369 98.10327,740.702228 C103.211966,729.821896 102.428358,717.619298 100.553301,705.812408 C99.200045,697.301235 97.6756126,688.75269 95.3286224,680.469561 C88.1709928,655.218637 86.7057325,630.157956 95.2199316,605.09008 C96.3344523,601.805412 96.7346973,598.256107 97.344074,594.807193 C97.6120943,593.283964 97.5753421,591.70107 97.7808288,588.573386 C89.6623946,597.003273 87.5854557,607.949797 79.5409958,615.566866 C76.109817,609.501558 77.6288239,604.248457 79.5649884,599.447722 C86.3783278,582.554758 85.7553003,564.393975 88.3111906,546.788844 C89.1454136,541.031885 85.7578975,536.700983 80.308894,535.160397 C74.8913172,533.629884 73.3084685,538.636944 71.6366137,542.17523 C63.4290408,559.561869 60.6685577,578.685832 55.2238501,596.958518 C52.1383776,607.310011 49.885977,617.814922 42.0943652,626.140783 C39.7424685,628.65326 39.7167912,633.275324 38.3393433,636.818398 C37.0240578,640.194076 37.3363872,644.527679 32.4977561,647.055117 C35.916,624.214318 41.2129425,602.221805 41.9432934,580.027352 C42.6212623,559.408217 46.6065767,540.277481 54.3286957,521.667768 C59.1983434,509.935638 64.5703921,498.408398 72.9544969,488.645115 C74.6408734,486.682365 76.1931447,484.336047 79.190285,485.754408 C81.5569896,486.873885 81.3020667,489.395068 81.5262729,491.634767 C82.3695468,500.048026 78.5319624,507.870473 78.8110983,516.202518 C78.7767265,516.650355 77.2417748,517.336867 79.0287347,517.497209 C78.8869429,517.059157 78.7463099,516.622643 78.6045181,516.184591 C85.8640016,511.261489 87.8851346,502.828355 91.8447362,495.753011 C100.491718,480.306473 106.88859,463.493467 119.539895,450.526674 C122.153146,447.848596 124.605935,445.134716 130.453759,443.582761 C121.675232,462.916202 119.059762,482.646975 109.227263,499.816269 C107.198372,503.358384 104.992201,504.697771 101.041959,504.605211 C95.9966321,504.489164 92.9269087,507.067583 94.4980258,512.420047 C98.408681,525.735764 97.3449842,538.672186 94.2476774,551.981324 C92.7770433,558.295007 91.2840599,568.526628 98.654501,570.659064 C106.705824,572.989683 109.917257,563.203902 113.06404,556.909836 C117.072174,548.896182 119.180358,540.202155 118.662759,531.044393 C118.333175,525.226523 118.876999,519.587131 121.57812,514.340157 C121.904335,514.366983 122.229772,514.396553 122.554986,514.428057 C122.554602,512.863473 122.03604,511.043724 124.517463,510.711999 C124.454258,512.124288 124.389172,513.540406 124.328646,514.953087 C124.04155,514.92299 123.753656,514.89406 123.4654,514.866517 C125.021859,520.796095 121.272255,527.239245 126.170695,534.883926 C145.483267,484.1987 156.53669,433.17187 162.862052,380.545808 C158.293908,380.193141 156.692998,382.971526 154.382054,384.307888 C151.890333,385.749133 149.501864,387.194547 145.290492,386.606789 C149.755025,379.372769 155.139903,374.473513 162.971666,372.897299 C168.649492,371.75554 170.336865,376.620164 172.980613,381.615211 C174.27201,377.919986 175.3138,375.165104 176.199978,372.35871 C178.696646,364.461739 180.496495,356.677567 192.315453,362.220832 C198.630304,365.182467 203.833118,359.089499 210.416333,354.562682 C206.107198,367.041801 202.258321,377.645477 198.834502,388.389362 C197.596582,392.275752 196.233507,396.685621 196.902193,400.533695 C199.159664,413.537629 194.603326,424.606906 189.759184,436.078711 C185.709096,445.681523 182.928652,455.928536 180.482641,466.116419 C175.762872,485.781318 168.752765,504.21615 157.555217,521.206141 C146.818246,537.494636 147.75859,556.494048 149.426447,575.000694 C150.914899,591.523209 153.265957,608.162421 163.273944,622.322822 C169.976236,631.808569 176.281329,631.394839 182.206246,621.452164 C186.465017,614.305687 188.7535,606.331722 191.392821,598.491206 C199.916525,573.170238 208.291484,547.746774 224.081258,525.789379 C232.228048,514.461729 242.49622,505.942923 256.078668,501.578748 C266.5558,498.211636 275.290518,492.000856 282.172554,483.318832 C288.314065,475.570959 287.922498,472.505006 279.717839,466.475637 C286.343123,462.295655 289.235611,455.648313 291.826973,448.721563 C298.49733,430.892354 302.400729,411.994531 311.941521,395.266872 C314.536422,390.717172 311.295004,385.950683 311.79021,381.189388 C313.079559,368.758021 316.141005,356.739302 318.975948,344.647749 C320.427637,338.454429 321.652822,332.188275 322.601769,325.893996 C323.15448,322.237033 324.871169,317.72706 321.517587,315.010107 C317.566549,311.81029 313.802175,315.519753 309.281787,317.773623 C312.563728,309.63451 307.38824,308.953504 302.399132,308.643195 C291.828404,307.979624 281.52312,310.091274 271.169581,311.69921 C267.500126,312.270277 263.983934,314.117034 260.087243,313.190882 C261.281465,295.300225 258.143405,292.768058 240.160056,297.048954 C235.224913,298.224181 230.327746,299.563677 225.377528,300.668289 C220.626129,301.726755 216.26937,301.863373 217.301999,293.74114 L204.119462,303.674894 C209.496592,293.590462 214.471914,285.819638 211.498104,275.1421 C208.111467,277.426486 205.196591,279.514505 202.161697,281.408459 C196.99854,284.631313 191.406903,286.238557 186.233394,281.871958 C181.253825,277.667832 182.536388,271.898518 184.330484,266.722627 C188.356258,255.120078 197.852521,247.727847 206.15203,239.576213 C232.129632,214.067064 258.528156,189.002624 286.697362,165.892567 C307.922189,150.426535 328.402388,133.937553 351.055202,120.455092 C381.476726,102.345718 415.188113,95.9342928 449.864932,92.7904907 C452.256047,92.5727233 455.549838,92.2654505 456.67504,95.0365522 C458.06452,98.4620226 454.720856,99.8797994 452.667278,101.719019 C448.895377,105.099017 443.982189,105.310154 439.418637,106.48505 C433.406015,108.033404 426.857014,108.249983 421.93164,113.195983 C437.587976,118.574485 462.091463,109.37308 471.209907,94.7261674 C473.563421,90.9442542 475.691387,87.1635284 479.234945,84.2618041 C490.421316,75.0920736 495.114018,75.5341196 503.650546,87.5773443 C506.402236,91.4567065 508.965973,92.9894863 513.918499,91.8373259 C518.372238,90.7982224 524.494268,90.2933896 526.473836,95.6659688 C528.204255,100.363135 523.302824,103.46833 520.061338,106.328078 C512.713772,112.807591 504.028448,117.698464 497.547591,125.21743 C496.351071,126.606107 494.478612,127.89173 495.211173,130.069027 C496.090597,132.697432 498.651273,132.752127 500.791262,132.786285 C526.715577,133.216908 549.608501,146.041426 574.278352,151.576436 C579.21057,152.684276 577.306418,155.452474 575.389062,157.750821 C572.358877,161.384424 568.804453,164.610185 566.028743,168.42333 C560.388506,176.181647 562.196004,181.401796 571.49038,183.955427 C581.766286,186.777245 592.290833,186.120602 602.80042,185.950209 C611.905249,185.804033 620.911802,183.142434 630.090073,185.168736 L630.118204,185.000463 C615.645462,196.36938 600.401141,206.641626 583.942706,214.853522 C565.120872,224.243602 548.201728,220.086731 534.606575,203.554171 C530.883775,199.025055 526.717598,195.049454 521.378769,192.680827 C514.760974,189.747359 509.783612,193.314829 510.588262,200.54443 C510.967517,203.945153 511.95939,207.614787 513.761254,210.483575 C522.682353,224.691464 537.16795,232.51455 551.540513,238.580762 C564.088121,243.876332 575.12901,234.285796 585.638537,227.950367 C594.85012,222.397712 602.29203,214.183474 612.323724,209.823528 C620.562355,206.240919 624.180268,208.141453 625.613152,216.913292 C626.12529,220.047517 626.060511,223.276521 626.178912,226.463931 C626.411781,232.725985 625.9345,238.023495 617.127459,236.689109 C613.854569,236.192214 609.851393,237.111201 608.390976,241.047111 C607.049601,244.657034 609.783708,247.206685 611.89331,249.433695 C618.272162,256.15899 625.268596,262.315228 631.37662,269.266305 C637.164532,275.85584 636.074241,278.321777 627.702717,279.706786 C619.607633,281.047435 612.018768,281.114529 605.979061,273.656279 C597.47399,263.154128 595.557018,263.137567 585.291185,271.415916 C583.820128,272.601591 582.458724,273.926454 578.90125,277.103882 C597.400436,275.301026 602.220678,286.954839 606.289264,299.635579 C607.340428,302.915752 609.431649,305.877521 611.111984,308.948796 C611.56767,309.784421 612.89652,310.668511 612.748348,311.231034 C608.959984,325.543133 621.86897,323.217472 628.990655,326.547594 C613.707749,343.76866 595.079827,343.515448 574.033487,326.169871 C579.39103,322.132672 584.752805,318.246593 589.930836,314.132493 C592.940067,311.739501 596.249498,308.669422 594.991956,304.609274 C593.656815,300.303808 589.044826,300.459159 585.232155,300.359375 C566.409699,299.866985 548.704449,304.415709 531.825465,312.230837 C526.618549,314.642795 521.632407,316.734079 515.626302,316.905628 C503.816687,317.245545 495.646212,324.388563 489.3008,333.498029 C477.809972,349.988114 471.374645,368.496142 469.888227,388.637098 C469.601154,392.532702 467.819783,397.624261 474.815039,399.195548 C477.735921,399.851613 477.85178,404.386311 478.57996,407.427657 C482.146792,422.302025 478.900113,436.659214 475.440464,450.914082 C471.617143,466.682282 465.820556,481.92903 463.94103,498.214367 C461.262493,521.394672 473.734247,542.383133 495.407317,550.979262 C502.886688,553.945817 507.02815,549.515796 510.095834,544.11315 C513.371682,538.341468 515.542399,531.941459 518.493604,525.963544 C522.879231,517.084364 525.56049,516.568393 533.795534,521.784038 C536.993513,523.81054 540.690205,525.024833 544.143839,526.6441 C564.284382,536.091279 567.493071,551.910623 552.426091,567.447597 C553.528468,569.445071 555.706305,569.036006 557.398007,569.680421 C560.128031,570.719003 562.921249,571.673798 563.723403,574.936673 C564.292282,577.254191 562.740362,578.512856 560.943972,579.304756 C557.699435,580.737044 554.532202,579.962825 552.057439,577.678256 C546.415211,572.471388 543.291962,565.985975 542.78494,558.240357 C542.49431,553.796371 542.093686,549.317129 541.19855,544.959778 C540.565574,541.8708 539.332218,538.513334 535.499114,537.997368 C531.440962,537.448457 528.8898,540.294332 527.151424,543.241403 C520.55447,554.421046 519.755764,566.231937 525.773844,577.947539 C528.989363,584.204291 533.221804,590.31438 539.777873,593.422149 C547.221447,596.948523 546.852256,602.18387 544.873171,608.449118 C540.253426,623.071859 533.105292,636.578817 526.96414,650.53008 C524.292734,656.600944 522.003816,662.844096 519.311987,669.583748 C510.196111,649.145377 491.708221,640.581803 473.904945,631.367315 C464.542315,626.521566 454.833354,622.320154 445.119493,618.226112 C440.47122,616.267783 438.027119,614.140939 438.547246,608.403674 C439.198278,601.258557 437.693152,594.310875 430.361347,590.309685 C423.096743,586.347063 416.843488,588.120146 411.241037,593.407584 C408.792001,595.7184 406.077647,595.516704 403.239106,594.584006 C395.300318,591.975702 394.285956,596.048054 395.724998,602.411426 C396.499382,605.839891 397.563453,609.20678 398.298522,612.643172 C399.276754,617.215177 401.133732,619.106942 406.282313,617.50325 C414.021222,615.09527 417.565892,619.233005 418.080984,626.786891 C418.276793,629.653165 418.508302,632.538346 419.01538,635.365358 C420.718931,644.87596 422.830321,645.953958 432.509294,641.464392 C432.480127,651.89251 436.255765,658.402279 447.855377,658.637725 C453.756697,658.75731 456.114373,664.476662 455.731202,670.028749 C455.383837,675.071641 454.116679,680.067451 452.985275,685.018829 C450.335661,696.606657 451.154762,697.817004 462.693987,698.054555 C461.085824,704.233178 459.390536,710.318325 457.959547,716.469525 C457.47558,718.541252 456.684841,721.034621 458.871586,722.709232 C461.061808,724.388457 463.250638,723.2285 464.943936,721.812668 C476.05983,712.52727 490.034804,706.820905 498.867909,694.667464 C499.783663,693.405973 500.979577,692.234748 502.286632,691.394475 C506.050623,688.965574 509.51333,683.084427 514.487541,686.942987 C520.157912,691.342643 516.157273,697.120416 513.627522,701.592089 C509.178617,709.460497 502.143712,714.602548 494.450273,719.421079 C487.566454,723.735605 476.025494,726.968878 477.357497,736.337526 C478.531197,744.569301 490.216509,743.97586 497.40109,746.839062 C500.113295,747.920331 502.843262,748.940928 505.550056,750 L94.7980798,750 L94.7980759,750 Z M86.9421375,750 L78.9208956,750 C80.4320264,749.265817 81.8364215,748.424077 83.0019867,747.336894 C85.4333683,745.070395 86.8207572,747.452496 86.9421375,750 Z M1507.71,750 L1375.77454,750 C1375.40531,747.366773 1375.01099,744.734351 1374.58989,742.102787 C1371.29049,721.491103 1364.94633,701.700644 1356.03894,682.756747 C1354.57777,679.650514 1353.21759,675.419369 1349.22959,675.485464 C1344.47936,675.561746 1343.58519,680.29337 1342.95904,683.89717 C1339.69404,702.740683 1336.8299,721.660663 1333.65679,740.521732 C1333.12216,743.693415 1332.5581,746.866256 1331.86003,750 L1299.00143,750 C1299.35852,749.426536 1299.70789,748.822537 1300.04957,748.187978 C1303.89027,741.062392 1304.49535,733.021231 1306.29014,725.274627 C1316.89248,679.472524 1313.6126,633.841016 1306.83909,587.54622 C1302.32444,556.699134 1294.22555,527.747675 1280.12015,500.197702 C1272.37279,485.06435 1264.38698,481.273895 1247.79598,483.685817 C1243.73177,484.277083 1239.55157,484.208324 1235.42244,484.267441 C1224.34127,484.432148 1223.99953,484.880141 1227.79963,495.822295 C1229.68719,501.259391 1231.47533,506.744872 1233.67616,512.056804 C1237.00798,520.096904 1234.65228,526.551924 1228.48922,531.671101 C1211.53465,545.756489 1191.7128,551.314297 1169.89261,548.98206 C1156.7838,547.578905 1149.50961,539.377622 1148.87839,528.041498 C1148.55212,522.158441 1149.84653,518.998615 1156.68781,519.694985 C1163.63965,520.402068 1170.69396,520.419536 1177.68146,520.202841 C1183.38092,520.026082 1189.14735,519.514345 1194.70766,518.352647 C1213.80765,514.361086 1220.852,503.490472 1216.63412,484.282172 C1215.5938,479.542368 1214.90798,477.180367 1221.16986,476.174731 C1232.36567,474.378146 1239.32771,466.34951 1244.31191,456.71789 C1252.98049,439.965163 1256.36503,421.795877 1255.72653,403.070506 C1255.47052,395.550442 1258.33222,394.049799 1264.61961,393.422776 C1276.0235,392.281913 1287.57302,394.288662 1298.88197,391.99694 C1308.0099,390.148022 1307.99642,390.085849 1306.8075,380.435779 C1320.79576,386.98206 1331.30614,396.469781 1342.67578,404.608385 C1353.86589,412.619465 1364.86889,420.904153 1377.30391,426.913851 C1380.70115,428.556331 1384.6378,430.838729 1388.1074,428.110882 C1392.06638,424.994966 1389.95948,420.456124 1389.09151,416.495418 C1386.73922,405.756995 1379.6702,398.030404 1372.66606,389.994524 C1340.60308,353.199266 1312.07464,313.619995 1282.73993,274.682039 C1274.82432,264.174509 1266.91972,253.656276 1259.19987,243.003643 C1256.77731,239.662271 1254.90358,235.907326 1252.93356,232.258687 C1252.04414,230.607067 1250.94095,228.554748 1252.65318,226.967928 C1254.307,225.439597 1256.30176,226.612713 1258.02462,227.380723 C1266.85791,231.30892 1274.63277,237.030468 1282.24126,242.841221 C1301.05055,257.202312 1320.21448,271.202128 1338.00967,286.763797 C1352.51388,299.448022 1362.54076,316.337974 1373.28121,332.220052 C1401.48905,373.93601 1426.08024,417.707033 1446.06928,463.984015 C1486.32006,557.169808 1507.0688,652.388115 1507.71,750 Z M1160.7945,750 C1147.73894,743.617772 1133.84797,741.424459 1120.44304,736.844673 C1107.44864,732.401749 1094.36155,728.231205 1081.48583,723.464976 C1077.58397,722.019525 1071.65648,721.435032 1071.12097,716.273843 C1070.03985,705.833693 1076.02467,695.679511 1083.54968,693.247061 C1094.74663,689.626856 1104.80992,693.327391 1112.84309,700.609539 C1131.66525,717.663729 1154.72409,721.326562 1178.25472,723.859931 C1201.03389,726.313396 1224.10192,725.790938 1246.53357,731.838367 C1253.53968,733.724557 1259.66973,736.222689 1263.73682,742.79975 C1265.45257,745.576126 1267.6547,747.924751 1270.12261,750 L1160.7945,750 Z M955.696337,750 L789.19281,750 C788.063685,747.65497 786.379296,745.329002 784.157547,743.092384 C779.654056,738.55844 774.474498,734.693078 770.052667,730.090365 C763.811652,723.589107 764.432765,721.898657 772.813082,719.626985 C774.965106,719.044485 778.799124,720.121541 778.564585,716.599711 C778.349724,713.347558 774.889306,712.529052 771.969914,712.06475 C756.751678,709.63998 741.430081,711.531743 726.180641,710.504792 C712.173139,709.557031 698.237059,708.403552 685.40136,701.45409 C678.585012,697.763683 674.127555,692.117305 670.216195,685.80384 C667.690084,681.730382 668.975983,679.444948 673.595627,678.502644 C682.061207,676.774308 690.117272,678.927757 698.014481,681.449251 C715.200867,686.938174 732.315216,690.041388 750.633348,688.40631 C764.966504,687.129193 778.769539,693.306315 792.128924,698.720719 C808.417917,705.324689 824.494004,712.474866 840.781116,719.082665 C848.974347,722.408202 857.407861,725.217537 867.236503,724.200435 C864.627105,719.001085 862.245295,714.556082 860.138532,709.985792 C855.804179,700.596302 857.922885,696.509116 867.816443,694.300254 C870.613458,693.675355 875.313803,695.348515 875.587194,691.11844 C875.842319,687.145646 871.472634,685.715171 868.18232,684.64793 C858.990527,681.667394 849.376684,680.805957 839.874919,680.248245 C830.562861,679.701885 828.205726,675.874808 831.516819,667.600408 C832.10221,666.134583 832.291068,664.509465 832.77899,662.996536 C839.098371,643.341417 847.79776,639.917926 865.47064,650.556757 C874.757616,656.146668 884.160187,661.557851 892.055597,669.315115 C898.534873,675.680229 904.673924,676.235493 912.81733,669.841012 C940.103889,648.415956 957.160354,619.924846 970.83532,588.863197 C972.835039,584.320774 974.369725,584.437346 977.412579,587.706708 C996.773,608.502315 1012.64333,631.650624 1024.8984,657.279706 C1027.2483,662.194798 1027.1864,665.645867 1022.06548,669.335982 C1013.93326,675.201245 1009.22591,684.004598 1005.6084,693.336897 C1002.39267,701.633466 999.29867,709.999847 995.575756,718.066198 C991.051228,727.864986 984.195974,735.465962 973.680792,739.348782 C967.014514,741.810685 961.300053,745.815127 955.696337,750 Z M639.027704,750 C640.914676,745.636657 642.730177,741.244493 645.117591,737.136121 C650.699153,727.531747 657.505214,724.62601 666.316334,730.919286 C680.214211,740.84406 695.517479,740.974523 711.090403,741.171823 C725.736953,741.360756 740.427008,740.80082 754.8662,744.171889 C759.893146,745.3462 763.787069,747.327859 766.529151,750 L639.027704,750 Z M629.550235,411.42624 C615.553719,422.484516 613.29801,437.587403 609.537064,452.476783 C616.661324,450.818891 622.05752,454.668079 627.654981,457.702561 C631.153565,459.596572 630.736587,462.418292 628.510439,464.828777 C626.162604,467.371948 623.33918,469.470618 620.756846,471.797493 C616.721582,475.428993 615.945035,479.997236 620.303812,483.273159 C628.060014,489.102798 630.204325,498.018458 634.130707,505.873326 C638.710328,515.044238 636.800359,520.461753 627.485716,524.16322 C622.669837,526.07557 621.101735,528.89433 619.496337,533.409649 C613.434973,550.449633 600.508133,561.557777 585.51514,570.471268 C582.919826,572.012275 579.407908,573.178303 576.488846,570.835536 C573.506707,568.443857 574.52901,564.951409 575.083582,561.878931 C575.467687,559.747436 575.989301,557.30497 577.312931,555.743355 C586.051862,545.445065 586.628232,533.063932 586.048153,520.486145 C585.176945,501.774595 579.96384,483.981703 573.243671,466.577037 C570.955099,460.648892 567.743725,457.930865 560.287859,458.977892 C544.843011,461.145772 538.238379,454.342275 537.649233,438.231884 C537.175522,425.320783 539.563412,412.126705 531.493839,400.105318 C528.39618,395.488483 534.371475,393.071343 536.810327,390.187136 C540.556086,385.753916 544.598623,378.478644 550.581518,380.882721 C555.604146,382.901323 552.658521,390.632696 552.669107,395.888065 C552.6815,403.543489 552.189078,411.224892 552.736404,418.843697 C553.218602,425.607431 554.802518,433.298624 561.40139,436.108922 C569.86128,439.706086 577.429508,443.087895 583.641572,450.686302 C587.7428,455.701792 593.132962,450.44895 596.049656,446.329447 C602.636361,437.030922 608.580648,427.268945 615.012016,417.856013 C618.037545,413.425446 621.568761,409.327492 629.550235,411.42624 Z M1061.14334,448.988402 C1058.75569,450.539286 1056.49502,452.344085 1053.95866,453.599563 C1042.0366,459.49973 1040.01535,458.705827 1033.31247,446.780525 C1030.02521,440.934671 1026.53414,435.182119 1022.823,429.593 C1018.59506,423.226353 1012.70346,420.073562 1004.88766,421.095262 C995.449476,422.326863 986.004269,423.539648 976.532579,424.492707 C953.604957,426.802043 936.446895,416.539575 923.772164,398.213984 C915.27005,385.92542 920.199432,360.019459 931.788066,350.712964 C937.069828,346.467654 940.17257,349.769042 942.147301,354.173608 C945.536655,361.746003 948.227999,369.622568 951.330866,377.324048 C954.244653,384.553189 958.188259,388.568723 967.297725,386.360008 C980.297408,383.208928 993.148895,386.725196 1005.66486,390.998208 C1021.53524,396.420357 1036.81113,402.72689 1054.42519,402.536159 C1072.58933,402.338389 1080.87529,419.040534 1072.67299,435.3334 C1069.92724,440.790013 1066.29711,445.54116 1061.14334,448.988402 Z M631.529665,185.740771 C631.789296,185.648801 632.04544,185.501592 632.307262,185.49477 C632.442951,185.491374 632.586731,185.742276 632.728459,185.876582 C632.337731,185.775603 631.947003,185.674623 631.556275,185.573644 C631.555116,185.572106 631.529665,185.740771 631.529665,185.740771 Z M864.149071,541.480096 C859.292325,519.409074 865.121092,506.387596 886.024592,494.787526 C900.115045,486.966439 915.371068,482.782948 931.835058,485.877153 C947.665028,488.851183 954.78809,502.555063 948.436211,517.087055 C947.374657,519.512049 945.873417,520.404619 943.53867,520.792083 C926.803012,523.578233 915.035875,533.824534 905.16265,546.682197 C894.181613,560.979832 883.695631,575.668723 872.496468,589.790768 C865.816973,598.216491 857.061055,603.813958 845.788382,604.376136 C840.023634,604.66237 836.590316,603.247199 835.540333,596.277213 C832.604577,576.809203 826.192477,558.608202 813.015278,543.221794 C810.147269,539.871308 809.421184,535.080364 808.844397,530.610906 C808.455807,527.583699 809.372741,525.390648 812.887114,525.920157 C818.609166,526.782418 822.358071,523.542713 826.427387,520.358121 C834.725652,513.868646 837.957398,514.630418 843.156313,524.487146 C847.613704,532.932815 852.318661,540.716951 864.149071,541.480096 Z" id="Fill-9" fill="#B8E986"></path>
        </g>
    </g>
</svg>