<?xml version="1.0" encoding="utf-8"?>
<!-- Generator: Adobe Illustrator 19.0.0, SVG Export Plug-In . SVG Version: 6.00 Build 0)  -->
<svg version="1.1" xmlns="http://www.w3.org/2000/svg" xmlns:xlink="http://www.w3.org/1999/xlink" x="0px" y="0px"
	 viewBox="0 0 463 463" style="enable-background:new 0 0 463 463;" xml:space="preserve">
<style type="text/css">
	.st0{display:none;}
	.st1{display:inline;}
	.st2{fill:none;}
	.st3{fill:#990000;}
	.st4{display:inline;fill:#333333;}
</style>
<g id="Layer_2" class="st0">
	<g class="st1">
		<path class="st2" d="M370.4,185.8c-3.4-10.5-8-20.5-13.8-30c-6-9.8-13.2-19-21.5-27.4c-0.9-0.9-1.7-1.8-2.6-2.6
			c-0.5-0.5-1.5-1-1.5-1.5V335c0,1,1.1,1.5,1.8,0.8c0,0-0.1,0,0,0c0.8-0.8,1.5-1.5,2.3-2.3c8.4-8.4,15.7-17.7,21.7-27.7
			c5.2-8.5,9.4-17.6,12.7-27c3.9-11.2,6.4-23,7.5-35c0.4-4.2,0.6-8.5,0.6-12.8c0-3.7-0.1-7.5-0.4-11.2
			C376.2,208.2,373.9,196.8,370.4,185.8z"/>
		<path class="st2" d="M366.3,96.7C330.5,60.8,282.8,41,232,41S133.5,60.8,97.6,96.7C61.8,132.5,42,180.2,42,231
			s19.8,98.5,55.6,134.4C133.5,401.2,181.2,421,232,421s98.5-19.8,134.3-55.6C402.2,329.5,422,281.8,422,231S402.2,132.5,366.3,96.7
			z M222,407.8c0,1.6-1.5,2.9-3,2.7c-11-0.8-21.8-2.6-32.1-5.4c-9-2.3-17.7-5.4-26-9c-10.6-4.6-20.6-10.2-30-16.6
			c-17.3-11.8-32.4-26.6-44.6-43.6c-6.7-9.4-12.6-19.4-17.4-30c-4-8.7-7.3-17.7-9.8-27c-2.9-10.3-4.8-21-5.8-32
			c-0.1-1.6,1.1-2.9,2.7-2.9H158c1.5,0,3,1.1,3,2.6v7.5v0.3v77.3c0,1.8-1.7,3.3-3.5,3.3h-23.6c-1.8,0-2.9-1.6-2.9-3.3v-49.8
			c0-1.7-1.6-2.9-3.3-2.9H99.5c-1.9,0-3.2,1.8-2.6,3.6c3.1,8.1,6.9,15.8,11.3,23.2c6,10,13.3,19.2,21.7,27.7
			c0.3,0.3,0.5,0.5,0.8,0.8c0.5,0.5,1.1,1,1.6,1.5c8.7,8.3,18.2,15.4,28.4,21.2c7.1,4.1,14.7,7.5,22.5,10.3c1.8,0.6,3.8-0.7,3.8-2.6
			V97.2c0-1.9-2-3.2-3.8-2.6c-7.7,2.8-15.2,6.2-22.4,10.3c-10.1,5.8-19.5,12.7-28.1,20.9c-0.2,0.2-0.5,0.5-0.8,0.8
			c0.5-0.4,1.2-0.6,2-0.6h23.6c1.8,0,3.5,1.3,3.5,3v88.1c0,1.5-1.5,2.9-3,2.9H55.8c-1.6,0-2.8-1.4-2.7-3c0.8-10.6,2.6-21.1,5.2-31.1
			c2.7-10.4,6.3-20.4,10.7-30c4.9-10.6,10.8-20.7,17.5-30c12.2-16.9,27.2-31.6,44.3-43.3c9.4-6.5,19.4-12,30-16.6
			c8.3-3.6,17-6.7,26-9c10.4-2.7,21.2-4.5,32.2-5.4c1.6-0.1,3,1.1,3,2.7V407.8z M406.1,278.8c-2.5,9.3-5.9,18.3-9.8,27
			c-4.9,10.6-10.7,20.6-17.4,30c-13,18.1-29.4,33.8-48.1,46c-9.4,6.2-19.5,11.5-30,15.8c-8.7,3.6-17.7,6.5-27,8.6
			c-10.9,2.6-22.1,4.1-33.7,4.6c-0.6,0-1.1-0.5-1.1-1.1V52.3c0-0.6,0.4-1.2,1.1-1.1c10.8,0.4,21.4,1.8,31.7,4.1
			c1.3,0.3,2.3,1.4,2.3,2.8v308.2c0,1.9,1.8,3.3,3.6,2.7c7-2.3,13.8-5,20.3-8.3c1.8-0.9,3.1-2.8,3.1-4.9v-288c0-0.3,0-0.6,0.2-0.8
			c1.1-1.1,2.5-1.4,3.6-0.9c9.1,4,17.8,8.7,26,14.1c18.6,12.1,34.9,27.7,47.8,45.7c6.8,9.4,12.6,19.4,17.5,30
			c4.4,9.6,8,19.6,10.7,30c2.8,11,4.7,22.3,5.4,34c0.2,3.7,0.3,7.4,0.3,11.2c0,4.3-0.2,8.6-0.5,12.8
			C411.2,255.9,409.2,267.6,406.1,278.8z"/>
		<path class="st2" d="M130,128.5c-8.3,8.3-15.5,17.5-21.5,27.4c-5.1,8.3-9.3,17.2-12.5,26.4c-0.6,1.8,0.7,3.8,2.6,3.8h29.3
			c1.7,0,3.3-1.5,3.3-3.2V129c0-0.8,0.2-1.5,0.6-2c-0.2,0.2-0.6,0.5-0.8,0.7C130.5,128,130.2,128.2,130,128.5z"/>
		<path class="st3" d="M232,6C107.7,6,7,106.7,7,231c0,124.3,100.7,225,225,225s225-100.7,225-225C457,106.7,356.3,6,232,6z
			 M366.3,365.4C330.5,401.2,282.8,421,232,421s-98.5-19.8-134.4-55.6C61.8,329.5,42,281.8,42,231s19.8-98.5,55.6-134.3
			C133.5,60.8,181.2,41,232,41s98.5,19.8,134.3,55.7S422,180.2,422,231S402.2,329.5,366.3,365.4z"/>
		<path class="st3" d="M219,51.5c-11,0.8-21.8,2.6-32.1,5.4c-9,2.3-17.7,5.4-26,9c-10.6,4.6-20.6,10.2-30,16.6
			c-17.2,11.8-32.2,26.5-44.3,43.3c-6.8,9.4-12.6,19.4-17.5,30c-4.4,9.6-8,19.6-10.7,30c-2.6,10-4.4,20.5-5.2,31.2
			c-0.1,1.6,1.1,3,2.7,3H158c1.5,0,3-1.4,3-2.9V129c0-1.8-1.7-3-3.5-3h-23.6c-0.8,0-1.5,0.2-2,0.6c0.2-0.2,0.5-0.5,0.7-0.7
			c8.6-8.2,18-15.2,28.1-20.9c7.1-4.1,14.7-7.5,22.5-10.3c1.8-0.6,3.8,0.7,3.8,2.6v267.7c0,1.9-2,3.2-3.8,2.6
			c-7.7-2.8-15.2-6.2-22.4-10.3c-10.2-5.8-19.8-12.9-28.4-21.2c-0.5-0.5-1.1-1-1.6-1.5c-0.3-0.2-0.5-0.5-0.8-0.8
			c-8.4-8.4-15.7-17.7-21.7-27.7c-4.5-7.4-8.3-15.1-11.3-23.2c-0.7-1.8,0.6-3.6,2.6-3.6h28.3c1.7,0,3.3,1.2,3.3,2.9v49.8
			c0,1.8,1.2,3.3,2.9,3.3h23.6c1.8,0,3.5-1.6,3.5-3.3v-77.3c0-1.6-1.3-3.3-2.9-3.5c1.6,0.2,2.9,1.5,2.9,3.2v-7.5
			c0-1.5-1.5-2.6-3-2.6H55.9c-1.6,0-2.9,1.3-2.7,2.9c1,11,2.9,21.7,5.8,32c2.5,9.3,5.8,18.3,9.8,27c4.8,10.6,10.7,20.6,17.4,30
			c12.2,17,27.3,31.8,44.6,43.6c9.4,6.5,19.4,12,30,16.6c8.3,3.6,17,6.7,26,9c10.4,2.7,21.2,4.5,32.2,5.4c1.6,0.1,3-1.1,3-2.7V54.2
			C222,52.7,220.5,51.4,219,51.5z M131,129v53.8c0,1.7-1.6,3.2-3.3,3.2H98.5c-1.9,0-3.2-2-2.6-3.8c3.3-9.2,7.5-18,12.5-26.4
			c6-9.8,13.2-19,21.5-27.4c0.3-0.3,0.5-0.5,0.8-0.8c0.2-0.2,0.6-0.5,0.9-0.7C131.2,127.6,131,128.3,131,129z"/>
		<path class="st3" d="M412.1,219.8c-0.7-11.7-2.5-23-5.4-34c-2.7-10.4-6.3-20.4-10.7-30c-4.9-10.6-10.8-20.6-17.5-30
			c-13-18-29.2-33.5-47.9-45.7c-8.2-5.4-16.9-10.1-26-14.1c-1.1-0.5-2.4-0.2-3.5,0.9c-0.2,0.2-0.2,0.5-0.2,0.8v288
			c0,2.1-1.3,3.9-3.2,4.9c-6.5,3.3-13.2,6.1-20.2,8.3c-1.8,0.6-3.7-0.8-3.7-2.7V58c0-1.3-1-2.5-2.3-2.8c-10.2-2.3-20.7-3.7-31.5-4.1
			c-0.6,0-1.1,0.5-1.1,1.1v357.4c0,0.6,0.4,1.2,1.1,1.1c11.6-0.5,22.8-2,33.8-4.6c9.3-2.2,18.3-5.1,27-8.6
			c10.5-4.3,20.6-9.6,30-15.8c18.7-12.2,35.1-27.9,48.1-46c6.7-9.4,12.6-19.4,17.4-30c4-8.7,7.3-17.7,9.8-27c3.1-11.3,5.1-23,6-35
			c0.3-4.2,0.4-8.5,0.4-12.8C412.5,227.2,412.4,223.5,412.1,219.8z M376.9,243.8c-1,12-3.6,23.8-7.5,35c-3.3,9.4-7.5,18.5-12.7,27
			c-6,10-13.3,19.2-21.7,27.7c-0.8,0.8-1.6,1.5-2.4,2.3c0,0,0.1,0,0.1,0c-0.7,0.7-1.8,0.2-1.8-0.8V124.4c0,0.5,0.9,1,1.5,1.5
			c0.9,0.9,1.7,1.7,2.6,2.6c8.4,8.3,15.5,17.5,21.5,27.4c5.8,9.5,10.4,19.5,13.8,30c3.6,10.9,5.8,22.3,6.7,34
			c0.3,3.7,0.4,7.4,0.4,11.2C377.5,235.3,377.3,239.6,376.9,243.8z"/>
		<path class="st3" d="M158.1,250.9c1.6,0.2,2.9,1.9,2.9,3.5V254C161,252.4,159.7,251,158.1,250.9z"/>
	</g>
</g>
<g id="Layer_1" class="st0">
	<path class="st1" d="M277,61.8v36.5c6.9,2.3,13.6,5.2,20,8.6V68.5C290.5,65.9,283.8,63.7,277,61.8z M232,371c-3.3,0-6.7-0.1-10-0.4
		v35.1c3.3,0.2,6.6,0.3,10,0.3s6.7-0.1,10-0.3v-35.1C238.7,370.9,235.3,371,232,371z M232,56c-3.4,0-6.7,0.1-10,0.3v35.1
		c3.3-0.2,6.7-0.3,10-0.3s6.7,0.1,10,0.3V56.3C238.7,56.1,235.4,56,232,56z M92.3,221H57.3c-0.2,3.3-0.3,6.6-0.3,10s0.1,6.7,0.3,10
		h35.1c-0.2-3.3-0.3-6.7-0.3-10C92,227.6,92.1,224.3,92.3,221z"/>
	<path class="st4" d="M222,0v56.3c-12,0.7-23.7,2.6-35,5.5V0H222z"/>
	<path class="st4" d="M222,405.7V463h-35v-62.8C198.3,403.1,210,405,222,405.7z"/>
	<path class="st4" d="M277,0v61.8c-11.3-3-23-4.9-35-5.5V0H277z"/>
	<path class="st4" d="M277,400.2V463h-35v-57.3C254,405,265.7,403.1,277,400.2z"/>
	<path class="st4" d="M167,9v59.5c-10.5,4.2-20.6,9.4-30,15.5V9H167z"/>
	<path class="st4" d="M167,106.9V136h-30v-7.8C146.1,119.7,156.2,112.6,167,106.9z"/>
	<rect x="137" y="221" class="st4" width="30" height="20"/>
	<path class="st4" d="M167,326v29.1c-10.8-5.7-20.9-12.8-30-21.2V326H167z"/>
	<path class="st4" d="M167,393.5V454h-30v-76C146.4,384.1,156.5,389.3,167,393.5z"/>
	<path class="st4" d="M327,9v75c-9.4-6.1-19.5-11.3-30-15.5V9H327z"/>
	<path class="st4" d="M327,378v76h-30v-60.5C307.5,389.3,317.6,384.1,327,378z"/>
	<path class="st4" d="M62.8,276H0v-35h57.3C58,253,59.8,264.7,62.8,276z"/>
	<rect x="167" y="241" class="st4" width="20" height="35"/>
	<rect x="222" y="241" class="st4" width="20" height="35"/>
	<rect x="277" y="241" class="st4" width="20" height="35"/>
	<path class="st4" d="M371.7,241c-0.8,12-3.2,23.8-7,35H327v-35H371.7z"/>
	<path class="st4" d="M463,241v35h-61.8c3-11.3,4.9-23,5.6-35H463z"/>
	<path class="st4" d="M62.8,186c-3,11.3-4.9,23-5.6,35H0v-35H62.8z"/>
	<rect x="167" y="186" class="st4" width="20" height="35"/>
	<rect x="222" y="186" class="st4" width="20" height="35"/>
	<rect x="277" y="186" class="st4" width="20" height="35"/>
	<path class="st4" d="M371.7,221H327v-35h37.6C368.4,197.2,370.8,209,371.7,221z"/>
	<path class="st4" d="M463,186v35h-56.3c-0.7-12-2.6-23.7-5.6-35H463z"/>
	<path class="st4" d="M85,326H9v-30h60.5C73.7,306.5,78.9,316.6,85,326z"/>
	<path class="st4" d="M137,296v30h-7.8c-8.5-9.1-15.6-19.2-21.2-30H137z"/>
	<rect x="167" y="296" class="st4" width="20" height="30"/>
	<rect x="222" y="296" class="st4" width="20" height="30"/>
	<rect x="277" y="296" class="st4" width="20" height="30"/>
	<path class="st4" d="M356.1,296c-5.7,10.8-12.8,20.9-21.2,30H327v-30H356.1z"/>
	<path class="st4" d="M454,296v30h-75c6.1-9.4,11.3-19.5,15.5-30H454z"/>
	<path class="st4" d="M85,136c-6.1,9.4-11.3,19.5-15.5,30H9v-30H85z"/>
	<path class="st4" d="M137,136v30h-29.1c5.7-10.8,12.8-20.9,21.2-30H137z"/>
	<rect x="167" y="136" class="st4" width="20" height="30"/>
	<rect x="222" y="136" class="st4" width="20" height="30"/>
	<rect x="277" y="136" class="st4" width="20" height="30"/>
	<path class="st4" d="M356.1,166H327v-30h7.8C343.3,145.1,350.4,155.2,356.1,166z"/>
	<path class="st4" d="M454,136v30h-59.5c-4.2-10.5-9.4-20.6-15.5-30H454z"/>
</g>
<g id="Layer_3">
	<g>
		<path class="st2" d="M366.4,96.6C330.5,60.8,282.8,41,232,41S133.5,60.8,97.6,96.6S42,180.2,42,231s19.8,98.5,55.6,134.4
			S181.2,421,232,421s98.5-19.8,134.4-55.6S422,281.8,422,231S402.2,132.5,366.4,96.6z M222,400.3c0,2.9-2.5,5.2-5.4,5
			c-10.1-0.9-20-2.6-29.6-5.2c-6.8-1.8-13.5-4-20-6.6c-10.5-4.2-20.6-9.4-30-15.5c-20.8-13.5-38.5-31.2-52-52
			c-6.1-9.4-11.3-19.5-15.5-30c-2.6-6.5-4.8-13.2-6.6-20c-2.5-9.6-4.3-19.4-5.2-29.6c-0.3-2.9,2.1-5.4,5-5.4H162c2.8,0,5,2.2,5,5v75
			c0,2.8-2.2,5-5,5h-20c-2.8,0-5-2.2-5-5v-40c0-2.8-2.2-5-5-5h-25.5c-3.5,0-6,3.6-4.6,6.9c1.8,4.5,3.8,8.9,6.1,13.1
			c5.7,10.8,12.8,20.9,21.2,30c1.2,1.3,2.5,2.7,3.8,4s2.6,2.6,4,3.8c9.1,8.5,19.2,15.6,30,21.2c4.3,2.3,8.7,4.3,13.1,6.1
			c3.3,1.3,6.9-1.1,6.9-4.6V105.5c0-3.5-3.6-6-6.9-4.6c-4.5,1.8-8.9,3.8-13.1,6.1c-10.8,5.6-20.9,12.8-30,21.2
			c-1.3,1.2-2.7,2.5-4,3.8s-2.6,2.6-3.8,4c-8.5,9.1-15.6,19.2-21.2,30c-2.3,4.3-4.3,8.7-6.1,13.1c-1.3,3.3,1.1,6.9,4.6,6.9H132
			c2.8,0,5-2.2,5-5v-40c0-2.8,2.2-5,5-5h20c2.8,0,5,2.2,5,5v75c0,2.8-2.2,5-5,5H62.7c-2.9,0-5.2-2.5-5-5.4c0.9-10.1,2.6-20,5.2-29.6
			c1.8-6.8,4-13.5,6.6-20c4.2-10.5,9.4-20.6,15.5-30c13.5-20.8,31.2-38.5,52-52c9.4-6.1,19.5-11.3,30-15.5c6.5-2.6,13.2-4.8,20-6.6
			c9.6-2.5,19.4-4.3,29.6-5.2c2.9-0.3,5.4,2.1,5.4,5V400.3z M401.2,276c-1.8,6.8-4,13.5-6.6,20c-4.2,10.5-9.4,20.6-15.5,30
			c-13.5,20.8-31.2,38.5-52,52c-9.4,6.1-19.5,11.3-30,15.5c-6.5,2.6-13.2,4.8-20,6.6c-10.5,2.8-21.4,4.6-32.5,5.4
			c-1.3,0.1-2.5-1-2.5-2.3V58.8c0-1.3,1.1-2.4,2.5-2.3c10.5,0.7,20.8,2.4,30.8,4.9c1,0.3,1.7,1.2,1.7,2.3v296.7
			c0,1.6,1.6,2.7,3.1,2.2c5.3-1.9,10.5-4.2,15.6-6.8c0.8-0.4,1.3-1.2,1.3-2.1V71.9c0-1.7,1.7-2.8,3.2-2.1c9.4,4,18.3,8.7,26.8,14.2
			c20.8,13.5,38.5,31.2,52,52c6.1,9.4,11.3,19.5,15.5,30c2.6,6.5,4.8,13.2,6.6,20c3,11.3,4.9,23,5.6,35c0.2,3.3,0.3,6.6,0.3,10
			s-0.1,6.7-0.3,10C406,253,404.2,264.7,401.2,276z"/>
		<path class="st2" d="M364.6,186c-2.3-6.9-5.2-13.6-8.6-20c-5.7-10.8-12.8-20.9-21.2-30c-1.2-1.4-2.5-2.7-3.8-4c0,0,0,0,0,0
			c-1.5-1.5-4-0.4-4,1.7v194.7c0,2.1,2.5,3.1,4,1.7c0,0,0,0,0,0c1.3-1.3,2.6-2.6,3.8-4c8.5-9.1,15.6-19.2,21.2-30
			c3.4-6.4,6.3-13.1,8.6-20c3.8-11.2,6.2-23,7-35c0.2-3.3,0.3-6.7,0.3-10c0-3.4-0.1-6.7-0.3-10C370.8,209,368.4,197.2,364.6,186z"/>
		<path class="st3" d="M232,6C107.7,6,7,106.7,7,231s100.7,225,225,225s225-100.7,225-225S356.3,6,232,6z M366.4,365.4
			C330.5,401.2,282.8,421,232,421s-98.5-19.8-134.4-55.6S42,281.8,42,231s19.8-98.5,55.6-134.4S181.2,41,232,41
			s98.5,19.8,134.4,55.6S422,180.2,422,231S402.2,329.5,366.4,365.4z"/>
		<path class="st3" d="M216.6,56.7c-10.1,0.9-20,2.6-29.6,5.2c-6.8,1.8-13.5,4-20,6.6c-10.5,4.2-20.6,9.4-30,15.5
			c-20.8,13.5-38.5,31.2-52,52c-6.1,9.4-11.3,19.5-15.5,30c-2.6,6.5-4.8,13.2-6.6,20c-2.5,9.6-4.3,19.4-5.2,29.6
			c-0.3,2.9,2.1,5.4,5,5.4H162c2.8,0,5-2.2,5-5v-75c0-2.8-2.2-5-5-5h-20c-2.8,0-5,2.2-5,5v40c0,2.8-2.2,5-5,5h-25.5
			c-3.5,0-6-3.6-4.6-6.9c1.8-4.5,3.8-8.9,6.1-13.1c5.7-10.8,12.8-20.9,21.2-30c1.2-1.4,2.5-2.7,3.8-4s2.6-2.6,4-3.8
			c9.1-8.5,19.2-15.6,30-21.2c4.3-2.3,8.7-4.3,13.1-6.1c3.3-1.3,6.9,1.1,6.9,4.6v250.9c0,3.5-3.6,6-6.9,4.6
			c-4.5-1.8-8.9-3.8-13.1-6.1c-10.8-5.7-20.9-12.8-30-21.2c-1.3-1.2-2.7-2.5-4-3.8s-2.6-2.6-3.8-4c-8.5-9.1-15.6-19.2-21.2-30
			c-2.3-4.3-4.3-8.7-6.1-13.1c-1.3-3.3,1.1-6.9,4.6-6.9H132c2.8,0,5,2.2,5,5v40c0,2.8,2.2,5,5,5h20c2.8,0,5-2.2,5-5v-75
			c0-2.8-2.2-5-5-5H62.7c-2.9,0-5.2,2.5-5,5.4c0.9,10.1,2.6,20,5.2,29.6c1.8,6.8,4,13.5,6.6,20c4.2,10.5,9.4,20.6,15.5,30
			c13.5,20.8,31.2,38.5,52,52c9.4,6.1,19.5,11.3,30,15.5c6.5,2.6,13.2,4.8,20,6.6c9.6,2.5,19.4,4.3,29.6,5.2c2.9,0.3,5.4-2.1,5.4-5
			V61.7C222,58.7,219.5,56.4,216.6,56.7z"/>
		<path class="st3" d="M406.7,221c-0.7-12-2.6-23.7-5.6-35c-1.8-6.8-4-13.5-6.6-20c-4.2-10.5-9.4-20.6-15.5-30
			c-13.5-20.8-31.2-38.5-52-52c-8.4-5.5-17.4-10.2-26.8-14.2c-1.5-0.7-3.2,0.5-3.2,2.1v281.7c0,0.9-0.5,1.7-1.3,2.1
			c-5.1,2.6-10.3,4.9-15.6,6.8c-1.5,0.6-3.1-0.6-3.1-2.2V63.6c0-1.1-0.7-2-1.7-2.3c-9.9-2.5-20.2-4.2-30.8-4.9
			c-1.3-0.1-2.5,1-2.5,2.3v344.5c0,1.3,1.1,2.4,2.5,2.3c11.2-0.8,22-2.6,32.5-5.4c6.8-1.8,13.5-4,20-6.6c10.5-4.2,20.6-9.4,30-15.5
			c20.8-13.5,38.5-31.2,52-52c6.1-9.4,11.3-19.5,15.5-30c2.6-6.5,4.8-13.2,6.6-20c3-11.3,4.9-23,5.6-35c0.2-3.3,0.3-6.6,0.3-10
			S406.9,224.3,406.7,221z M371.7,241c-0.8,12-3.2,23.8-7,35c-2.3,6.9-5.2,13.6-8.6,20c-5.7,10.8-12.8,20.9-21.2,30
			c-1.2,1.3-2.5,2.7-3.8,4c0,0,0,0,0,0c-1.5,1.5-4,0.4-4-1.7V133.6c0-2.1,2.5-3.1,4-1.7c0,0,0,0,0,0c1.3,1.3,2.6,2.6,3.8,4
			c8.5,9.1,15.6,19.2,21.2,30c3.4,6.4,6.3,13.1,8.6,20c3.8,11.2,6.2,23,7,35c0.2,3.3,0.3,6.6,0.3,10
			C372,234.3,371.9,237.7,371.7,241z"/>
	</g>
</g>
</svg>
